<svg id="Layer_1" data-name="Layer 1" xmlns="http://www.w3.org/2000/svg" viewBox="0 0 435.5 108.7"><defs><style>.cls-1{fill:#525252;}.cls-2{fill:#fff;}.cls-3{fill:none;stroke:#fff;stroke-miterlimit:3.86;stroke-width:1.32px;}</style></defs><title>logo-wht-drp</title><path class="cls-1" d="M162,109.61c-.5-10.6-7.3-13.2-15.3-14.1l-14.5-1.8c-4.6-.6-10.5-2.5-10-6.7,1-7.2,9.4-8.2,16.7-8.2,9.1-.1,16.5,2.5,18.4,4l2.3-8.1a9.42,9.42,0,0,1-2.9.1c-3.6-.6-11-2.1-18.1-2-11.9.3-23.6,3.3-24.3,14.4-.8,10.7,9.8,12.3,18.6,13.4l9.3,1.1c5.5.6,11.2,1.9,11.5,8.3s-7.3,10.2-15.3,10.2c-9.6-.1-19.7-3.9-24.3-5.5l1.8,9.6a18.1,18.1,0,0,0,2.3-.3c2.1-.2,11.6,2.1,18.9,2.1,12.7.1,25.4-4.9,24.9-16.5Z" transform="translate(-110.05 -71.81)"/><path class="cls-1" d="M212.35,125.61a9.93,9.93,0,0,1-2.7-3.4,11.52,11.52,0,0,1-1.5-6.1v-14.3c0-10-6.5-13.8-17.1-13.8-6.1-.1-9.6,1.5-15.9,1.7a7.31,7.31,0,0,1-3.3-.8l-3.1,9.5c7.5-3.5,12.8-4.4,21.2-4.7,7.1-.2,12,2.2,11,9.1l-3.8.1c-13,.5-30.9.4-31.1,12.7-.1,8.3,8.9,11.5,17,11.3,3.6-.1,11.2.6,16.9-2.9l2.9-1.7a4.18,4.18,0,0,0,1.3,2.1,3.65,3.65,0,0,0,3.2,1.2h5ZM201,112.21c.1,7.1-8.4,9.6-15.4,9.5-5.4-.1-13-1.5-12.6-6,.7-6.8,13.3-7.3,22.6-7.7l5.4-.3v4.5Z" transform="translate(-110.05 -71.81)"/><path class="cls-1" d="M230.85,125.61a10.16,10.16,0,0,1-2.2-3.2,11.16,11.16,0,0,1-1.1-5.1V77a4.13,4.13,0,0,1,.4-2.2,4.73,4.73,0,0,1,.7-1.2h-12a6.4,6.4,0,0,1,2.4,2.5,9.62,9.62,0,0,1,1.3,4.7v37.3a9.38,9.38,0,0,1-1.3,4.8,9.52,9.52,0,0,1-2.5,2.8h14.3Z" transform="translate(-110.05 -71.81)"/><path class="cls-1" d="M272.65,88.41a6.21,6.21,0,0,1-2.5,1.4,6.82,6.82,0,0,1-2.9.5h-14.5V78.11a1.94,1.94,0,0,1,.3-1.3,2.18,2.18,0,0,1,.5-.8h-8.4a2.41,2.41,0,0,1,.6.8,2.12,2.12,0,0,1,.4,1.4v7.7c0,4.1-2.3,4.8-5,4.9a4.57,4.57,0,0,1-3.7-1.6l-2.5,8.7c.5-.3.8-.6,1.3-.9a6,6,0,0,1,2.3-.6h7.3v14.2c0,8.4,3.4,16.1,15,15.7,4.1-.2,6.2-.8,9.6-1a7.58,7.58,0,0,1,1.6.3v-7.7c-3.4,1.5-5.6,2.8-9.4,2.7-7.7-.3-9.6-4.7-9.6-10V96.11h13.6a4.21,4.21,0,0,1,1.8.4,4.28,4.28,0,0,1,1.3.9l2.9-9Z" transform="translate(-110.05 -71.81)"/><path class="cls-1" d="M352.65,125.61a11.87,11.87,0,0,1-1.6-2.3,10.77,10.77,0,0,1-1-5.6v-15.4c0-8.8-7.5-14.2-17.9-13.9-6.5.3-11,1.6-15.9,5.8-3.4-3.9-5.8-5.8-14.8-6-6.3-.1-10.3,1.7-15.2,5.6v-4.4a6.12,6.12,0,0,1-.6.4,2.15,2.15,0,0,1-1.1.2h-8.1a8.82,8.82,0,0,1,2.4,2.7,7.78,7.78,0,0,1,1.4,4.6v19.9a9.57,9.57,0,0,1-1.4,5.3,13.76,13.76,0,0,1-2.4,3h14a9.14,9.14,0,0,1-2-2.4,9.26,9.26,0,0,1-1.3-5.1v-12.9c0-7.2,7.4-11.1,14.6-11.4,5.6-.3,9.9,3.2,9.9,8.1v14.5a13.67,13.67,0,0,1-3.5,9.3h13.6a7.54,7.54,0,0,1-2.3-2.7,8.39,8.39,0,0,1-1-4.4v-14.8c0-6.7,7.3-9.7,14-9.8,7.2-.1,10.8,3.9,10.8,9.4v14.8a8.68,8.68,0,0,1-1,4.2,10.32,10.32,0,0,1-2.1,3.3Z" transform="translate(-110.05 -71.81)"/><path class="cls-1" d="M403.35,125.61a9.93,9.93,0,0,1-2.7-3.4,11.52,11.52,0,0,1-1.5-6.1v-14.3c0-10-6.5-13.8-17.1-13.8-6.2-.1-9.6,1.5-15.9,1.7a7.31,7.31,0,0,1-3.3-.8l-3.1,9.5c7.5-3.5,12.8-4.4,21.2-4.7,7.1-.2,12,2.2,11,9.1l-3.7.1c-13.1.5-30.9.4-31.1,12.7-.1,8.3,8.9,11.5,17.1,11.3,3.6-.1,11.2.6,16.9-2.9l2.9-1.7a4.18,4.18,0,0,0,1.3,2.1,3.65,3.65,0,0,0,3.2,1.2h4.8Zm-11.2-13.4c.1,7.1-8.4,9.6-15.4,9.5-5.4-.1-13-1.5-12.6-6,.7-6.8,13.3-7.3,22.6-7.7l5.4-.3v4.5Z" transform="translate(-110.05 -71.81)"/><path class="cls-1" d="M442.85,89.61a51.16,51.16,0,0,0-11.4-1.3c-8.6-.1-12.1,4.4-14.5,6.8v-5.6a6.12,6.12,0,0,1-.6.4,2.15,2.15,0,0,1-1.1.2h-7.9a8.82,8.82,0,0,1,2.4,2.7,7.78,7.78,0,0,1,1.4,4.6v19.9a14.81,14.81,0,0,1-.7,5.3,8.62,8.62,0,0,1-2.4,3h13.3a9.14,9.14,0,0,1-2-2.4,9.26,9.26,0,0,1-1.3-5.1v-10c0-7.6,5.6-14.2,13.6-14.1,5.6.1,8.3,2.5,9.7,2.9l1.5-7.3Z" transform="translate(-110.05 -71.81)"/><path class="cls-1" d="M487.95,114.21c-.1-7.2-5.9-9.3-11.7-9.6l-12.3-.7c-3.7-.1-9.4-.6-8.7-4.2,1.1-5.6,7.3-5.6,12.7-5.9,1.9-.1,10.8.1,16.2,3.6l2.7-7.5a14.15,14.15,0,0,1-2.9.2c-3.4-.1-7.1-1.6-15.9-1.6-9.1,0-20.2,2.8-20.2,12.2,0,6.1,7,8.8,13.2,9l10.9.4c3.8.1,8.9.8,8.6,4.9-.4,5.7-7.4,6.3-12.2,6.5-8.6.3-12.7-2.9-21.4-5.5l3,10.1a15.94,15.94,0,0,1,3-.6c4.6.1,9.3,1.3,15.2,1.3,9.7,0,19.9-3.7,19.8-12.6Z" transform="translate(-110.05 -71.81)"/><path class="cls-1" d="M540.55,125.61a27.47,27.47,0,0,1-2.2-2.6,8.52,8.52,0,0,1-1.2-4.9v-16.9c0-8.6-7.4-13.7-17.4-13.4a26.63,26.63,0,0,0-17.1,6.3V79.41a9.19,9.19,0,0,1,.6-3.3,7,7,0,0,1,1.5-2.5H493a8.11,8.11,0,0,1,1.7,2.8,9.19,9.19,0,0,1,.6,3.3v38.2a8.15,8.15,0,0,1-.8,4.1,8.35,8.35,0,0,1-2.6,3.6h13.9a8.19,8.19,0,0,1-2.2-2.7,15.81,15.81,0,0,1-1.3-6.6v-7.9c0-7.7,5.4-14.6,16.7-14.6,6.7-.1,10.8,3,10.8,8.2v16.3a9.68,9.68,0,0,1-.8,4.1,9.11,9.11,0,0,1-2.2,3.3h13.7Z" transform="translate(-110.05 -71.81)"/><path class="cls-1" d="M224.25,145.41c-.1-2.9-2-3.6-4.1-3.8l-3.9-.5c-1.2-.2-2.8-.7-2.7-1.8.3-2,2.6-2.2,4.5-2.2a10,10,0,0,1,5,1.1l.6-2.2a2.15,2.15,0,0,1-.8,0,20.46,20.46,0,0,0-4.9-.5c-3.2.1-6.4.9-6.6,3.9s2.7,3.3,5,3.6l2.5.3c1.5.2,3,.5,3.1,2.2s-2,2.8-4.1,2.8a22.26,22.26,0,0,1-6.6-1.5l.5,2.6a1.27,1.27,0,0,0,.6-.1c.6-.1,3.1.6,5.1.6,3.5,0,6.9-1.4,6.8-4.5Z" transform="translate(-110.05 -71.81)"/><path class="cls-1" d="M237.85,149.71a3.11,3.11,0,0,1-.7-.9,3.17,3.17,0,0,1-.4-1.6v-3.9c0-2.7-1.7-3.7-4.6-3.7-1.7,0-2.6.4-4.3.5a2.92,2.92,0,0,1-.9-.2l-.8,2.6a14,14,0,0,1,5.7-1.3c1.9-.1,3.2.6,3,2.5h-1c-3.5.1-8.4.1-8.4,3.4,0,2.2,2.4,3.1,4.6,3.1,1,0,3,.2,4.6-.8l.8-.5a2.09,2.09,0,0,0,.4.6,1.22,1.22,0,0,0,.9.3h1.1Zm-3.1-3.6c0,1.9-2.3,2.6-4.2,2.6-1.5,0-3.5-.4-3.4-1.6.2-1.9,3.6-2,6.1-2.1l1.5-.1v1.2Z" transform="translate(-110.05 -71.81)"/><path class="cls-1" d="M242.85,149.71a2.84,2.84,0,0,1-.6-.9,3.19,3.19,0,0,1-.3-1.4v-10.8a1.27,1.27,0,0,1,.1-.6c.1-.1.1-.2.2-.3H239a2.34,2.34,0,0,1,.7.7,2.5,2.5,0,0,1,.3,1.3v10.1a2.2,2.2,0,0,1-.4,1.3,5,5,0,0,1-.7.8h3.9Z" transform="translate(-110.05 -71.81)"/><path class="cls-1" d="M254.15,139.71a1.61,1.61,0,0,1-.7.4,2.2,2.2,0,0,1-.8.1h-3.9v-3.3a.76.76,0,0,1,.1-.4.35.35,0,0,1,.1-.2h-2.3l.2.2c.1.1.1.2.1.4V139c0,1.1-.6,1.3-1.4,1.3a1.28,1.28,0,0,1-1-.4l-.7,2.3a.52.52,0,0,1,.4-.2,1.42,1.42,0,0,1,.6-.2h2v3.8c0,2.3.9,4.4,4,4.3,1.1-.1,1.7-.2,2.6-.3.2,0,.3.1.4.1v-2.1a4.51,4.51,0,0,1-2.5.7,2.38,2.38,0,0,1-2.6-2.7v-3.9h3.7a.9.9,0,0,1,.5.1l.4.2.8-2.3Z" transform="translate(-110.05 -71.81)"/><path class="cls-1" d="M275.75,149.71a2.09,2.09,0,0,1-.4-.6,2.54,2.54,0,0,1-.3-1.5v-4.1c0-2.4-2-3.8-4.9-3.8a6,6,0,0,0-4.3,1.6c-.9-1-1.6-1.6-4-1.6a6.1,6.1,0,0,0-4.1,1.5v-1.3c-.1.1-.1.1-.2.1a.37.37,0,0,1-.3.1H255a2.34,2.34,0,0,1,.7.7,2,2,0,0,1,.4,1.3v5.4a2.12,2.12,0,0,1-.4,1.4,5,5,0,0,1-.7.8h3.8a1.79,1.79,0,0,1-.5-.7,2.3,2.3,0,0,1-.4-1.4v-3.5c0-2,2-3,4-3.1a2.37,2.37,0,0,1,2.7,2.2v3.9a3.53,3.53,0,0,1-.3,1.4,3.38,3.38,0,0,1-.7,1.1h3.7a2,2,0,0,1-.6-.7,2.38,2.38,0,0,1-.3-1.2v-4c0-1.8,2-2.6,3.8-2.6s2.9,1,2.9,2.5v4a2,2,0,0,1-.3,1.1,2.84,2.84,0,0,1-.6.9h3.5Z" transform="translate(-110.05 -71.81)"/><path class="cls-1" d="M289.45,149.71a3.11,3.11,0,0,1-.7-.9,3.17,3.17,0,0,1-.4-1.6v-3.9c0-2.7-1.7-3.7-4.6-3.7-1.7,0-2.6.4-4.3.5a2.92,2.92,0,0,1-.9-.2l-.8,2.6a14,14,0,0,1,5.7-1.3c1.9-.1,3.2.6,3,2.5h-1c-3.5.1-8.4.1-8.4,3.4,0,2.2,2.4,3.1,4.6,3.1,1,0,3,.2,4.6-.8l.8-.5a2.09,2.09,0,0,0,.4.6,1.22,1.22,0,0,0,.9.3h1.1Zm-3-3.6c0,1.9-2.3,2.6-4.2,2.6-1.5,0-3.5-.4-3.4-1.6.2-1.9,3.6-2,6.1-2.1l1.5-.1v1.2Z" transform="translate(-110.05 -71.81)"/><path class="cls-1" d="M300.15,140a21.5,21.5,0,0,0-3.1-.4,4.9,4.9,0,0,0-3.9,1.8v-1.5c-.1.1-.1.1-.2.1a.37.37,0,0,1-.3.1h-2.1a2.34,2.34,0,0,1,.7.7,2,2,0,0,1,.4,1.3v5.4a3,3,0,0,1-.2,1.4,2.7,2.7,0,0,1-.7.8h3.6a1.79,1.79,0,0,1-.5-.7,2.23,2.23,0,0,1-.3-1.4v-2.7a3.65,3.65,0,0,1,3.7-3.8,5.51,5.51,0,0,1,2.6.8l.3-1.9Z" transform="translate(-110.05 -71.81)"/><path class="cls-1" d="M312.35,146.61c0-1.9-1.6-2.5-3.2-2.6l-3.3-.2c-1,0-2.5-.2-2.3-1.1.3-1.5,2-1.5,3.4-1.6a8.8,8.8,0,0,1,4.4,1l.7-2c-.3,0-.5.1-.8.1a41.76,41.76,0,0,0-4.3-.4c-2.5,0-5.5.8-5.5,3.3,0,1.7,1.9,2.4,3.6,2.4l2.9.1c1,0,2.4.2,2.3,1.3-.1,1.5-2,1.7-3.3,1.7-2.3.1-3.4-.8-5.8-1.5l.8,2.7a2.35,2.35,0,0,1,.8-.2c1.2,0,2.5.3,4.1.3,2.8.1,5.5-.9,5.5-3.3Z" transform="translate(-110.05 -71.81)"/><path class="cls-1" d="M326.55,149.71c-.2-.3-.4-.4-.6-.7a2.08,2.08,0,0,1-.3-1.3v-4.6c0-2.3-2-3.7-4.7-3.6a7.56,7.56,0,0,0-4.6,1.7v-4a2.92,2.92,0,0,1,.2-.9,1.61,1.61,0,0,1,.4-.7h-3.2a5.58,5.58,0,0,1,.5.8,2.39,2.39,0,0,1,.2.9v10.4a2.15,2.15,0,0,1-.2,1.1,3.59,3.59,0,0,1-.7,1h3.8a2,2,0,0,1-.6-.7,4.84,4.84,0,0,1-.3-1.8v-2.1c0-2.1,1.5-3.9,4.5-4,1.8,0,2.9.8,2.9,2.2v4.4a4.25,4.25,0,0,1-.2,1.1,2.84,2.84,0,0,1-.6.9h3.5Z" transform="translate(-110.05 -71.81)"/><path class="cls-1" d="M330.55,148.81a1.5,1.5,0,0,0-1.5-1.6,1.36,1.36,0,0,0-1.4,1.4c0,1,.7.9.6,1.5a1.29,1.29,0,0,1-.9,1.2l1.1,1,.6-.6a4.34,4.34,0,0,0,1.5-2.9Z" transform="translate(-110.05 -71.81)"/><path class="cls-1" d="M351.15,136c-.2,0-.4.1-.6,0a28.89,28.89,0,0,0-4.9-.6c-5-.1-8.5,3-8.4,7.4.1,4.1,2.5,7,7.9,7.1,2.7.1,3.3-.6,5.3-.7h.7v-2.5a13,13,0,0,1-5.8,1.4c-3.8.1-6-2.3-6-5.4,0-3.4,3-5.8,6.6-5.8a13,13,0,0,1,4.7,1.1l.5-2Z" transform="translate(-110.05 -71.81)"/><path class="cls-1" d="M356,149.71a2.84,2.84,0,0,1-.6-.9,3.19,3.19,0,0,1-.3-1.4v-10.8a1.27,1.27,0,0,1,.1-.6c.1-.1.1-.2.2-.3h-3.2a2.34,2.34,0,0,1,.7.7,2.5,2.5,0,0,1,.3,1.3v10.1a2.2,2.2,0,0,1-.4,1.3,5,5,0,0,1-.7.8H356Z" transform="translate(-110.05 -71.81)"/><path class="cls-1" d="M369.55,146c.4-3-1.2-6.4-6.1-6.3-4.2.1-6.1,2.2-6.2,5.4,0,3.8,3.3,5.1,6.5,5,2.4,0,3-.5,4.5-.5.3,0,.4.1.6.1v-2.4a11,11,0,0,1-5.1,1.2c-2.4,0-4-.7-4.4-2.8h9.5a.9.9,0,0,1,.5.1l.2.2Zm-2-1.8h-8.3c.2-2.1,2.2-3.1,4.2-3.1s3.9,1,4.1,3.1Z" transform="translate(-110.05 -71.81)"/><path class="cls-1" d="M383.15,149.71a3.11,3.11,0,0,1-.7-.9,3.17,3.17,0,0,1-.4-1.6v-3.9c0-2.7-1.8-3.7-4.6-3.7-1.7,0-2.6.4-4.3.5a2.92,2.92,0,0,1-.9-.2l-.8,2.6a14,14,0,0,1,5.7-1.3c1.9-.1,3.2.6,3,2.5h-1c-3.5.1-8.4.1-8.4,3.4,0,2.2,2.4,3.1,4.6,3.1,1,0,3,.2,4.6-.8l.8-.5a2.09,2.09,0,0,0,.4.6,1.22,1.22,0,0,0,.9.3h1.1Zm-3-3.6c0,1.9-2.3,2.6-4.2,2.6-1.5,0-3.5-.4-3.4-1.6.2-1.9,3.6-2,6.1-2.1l1.5-.1v1.2Z" transform="translate(-110.05 -71.81)"/><path class="cls-1" d="M398.25,140.11h-3.4c.2.3.3.3.3.8a5,5,0,0,1-1,2.4l-2.7,4.7-3.2-5.8a3,3,0,0,1-.4-1.1,2.39,2.39,0,0,1,.2-.9h-3.7a18.26,18.26,0,0,1,1.3,1.6c.4.8.8,1.2,1.2,2l3,5.2c.1.2.2.3.2.5s-.1.2-.1.3h2.8a.35.35,0,0,0-.1-.2.9.9,0,0,1,.1-.5l3.2-5.7c.5-.8.9-1.4,1.3-2a6.42,6.42,0,0,1,1-1.3Z" transform="translate(-110.05 -71.81)"/><path class="cls-1" d="M411.65,146c.4-3-1.2-6.4-6.1-6.3-4.2.1-6.1,2.2-6.2,5.4,0,3.8,3.3,5.1,6.5,5,2.4,0,3-.5,4.5-.5.3,0,.4.1.6.1v-2.4a11.25,11.25,0,0,1-5.1,1.2c-2.4,0-4-.7-4.4-2.8h9.5a.9.9,0,0,1,.5.1.22.22,0,0,1,.2.2Zm-2-1.8h-8.3c.2-2.1,2.2-3.1,4.2-3.1s4,1,4.1,3.1Z" transform="translate(-110.05 -71.81)"/><path class="cls-1" d="M416.65,149.71a2.84,2.84,0,0,1-.6-.9,3.19,3.19,0,0,1-.3-1.4v-10.8a1.27,1.27,0,0,1,.1-.6c.1-.1.1-.2.2-.3h-3.2a2.34,2.34,0,0,1,.7.7,2.5,2.5,0,0,1,.3,1.3v10.1a2.2,2.2,0,0,1-.4,1.3,5,5,0,0,1-.7.8h3.9Z" transform="translate(-110.05 -71.81)"/><path class="cls-1" d="M430.25,149.71a3.11,3.11,0,0,1-.7-.9,3.17,3.17,0,0,1-.4-1.6v-3.9c0-2.7-1.8-3.7-4.6-3.7-1.7,0-2.6.4-4.3.5a2.92,2.92,0,0,1-.9-.2l-.8,2.6a14,14,0,0,1,5.7-1.3c1.9-.1,3.2.6,3,2.5h-1c-3.5.1-8.4.1-8.4,3.4,0,2.2,2.4,3.1,4.6,3.1,1,0,3,.2,4.6-.8l.8-.5a2.09,2.09,0,0,0,.4.6,1.22,1.22,0,0,0,.9.3h1.1Zm-3-3.6c0,1.9-2.3,2.6-4.2,2.6-1.5,0-3.5-.4-3.4-1.6.2-1.9,3.6-2,6.1-2.1l1.5-.1v1.2Z" transform="translate(-110.05 -71.81)"/><path class="cls-1" d="M444.25,149.71a2.09,2.09,0,0,1-.4-.6,2.54,2.54,0,0,1-.3-1.5v-4.1c0-3-2.6-3.9-5-3.9a7.27,7.27,0,0,0-4.6,1.7v-1.4c-.1.1-.1.1-.2.1a.37.37,0,0,1-.3.1h-2.2a2.34,2.34,0,0,1,.7.7,2,2,0,0,1,.4,1.3v5.4a2.12,2.12,0,0,1-.4,1.4,2.51,2.51,0,0,1-.7.8H435a1.79,1.79,0,0,1-.5-.7,2.23,2.23,0,0,1-.3-1.4v-3.5c0-2,2.1-2.9,3.9-3.1,1.5-.2,3.5.5,3.5,2.6v4a2,2,0,0,1-.3,1.1,2.84,2.84,0,0,1-.6.9h3.5Z" transform="translate(-110.05 -71.81)"/><path class="cls-1" d="M457.95,149.71a2.18,2.18,0,0,1-.5-.8,3.19,3.19,0,0,1-.3-1.4v-11a.9.9,0,0,1,.1-.5c.1-.2.2-.2.3-.3h-3.4a2.55,2.55,0,0,1,.7,1,3,3,0,0,1,.3,1.6v2.6a6.89,6.89,0,0,0-4.3-1.2c-3.5,0-5.8,2.3-5.7,5.1,0,3.5,2.3,5.3,5.9,5.3a6.71,6.71,0,0,0,4.4-1.5,1.06,1.06,0,0,0,1.2,1.2h1.3Zm-2.6-4.9c-.1,2.1-1.3,3.7-4.1,3.7-2.6,0-4.3-1.6-4.1-3.8a3.72,3.72,0,0,1,3.9-3.6c2.3,0,4.4,1.3,4.3,3.7Z" transform="translate(-110.05 -71.81)"/><path class="cls-1" d="M481.75,149.81l-.6-1.1a12,12,0,0,0-1.3-2.1,9.6,9.6,0,0,0-1.5-1.4l.6-1.3a1.22,1.22,0,0,1,.9-.8,3.53,3.53,0,0,1,1.4-.1,2.35,2.35,0,0,1-.2-.8,1.85,1.85,0,0,1,.2-.7H477a1.78,1.78,0,0,1,.4,1,5.34,5.34,0,0,1-.5,1.8l-6.4-2.8c-1-.5-2-.9-2.1-2-.3-1.7,2-2.3,4-2.2a11,11,0,0,1,4.8,1.2V136a2.92,2.92,0,0,1-.9.2,18.1,18.1,0,0,0-4-.4c-3.2,0-6.2,1.1-5.9,3.8a4.13,4.13,0,0,0,1.1,2.3,4,4,0,0,0-2.6,3.7c-.1,3,2.8,4.9,6,4.8a7.88,7.88,0,0,0,6.8-3.5l.6.6a3,3,0,0,1,1,1.8c0,.3-.1.4-.3.7h2.7Zm-5.5-4c-.9,2.1-3.7,3-5.1,3-2.1-.1-4.2-1.2-4.2-3.4a3,3,0,0,1,2.1-2.7l3.8,1.5a26.81,26.81,0,0,0,3.4,1.6Z" transform="translate(-110.05 -71.81)"/><path class="cls-1" d="M503.95,141.41h-7.1c-.2,0-.4,0-.5.2s-.2.2-.3.4l-.6,1.3a1.42,1.42,0,0,1,.6-.2,1.27,1.27,0,0,1,.6-.1h4.9v2.4c0,2.2-2.6,3-4.9,3-3.2.1-6.2-1.6-6.3-5.6,0-3.3,2.5-5.6,6.3-5.6a12.5,12.5,0,0,1,5.6,1.3l.6-2.2h-.8a28.19,28.19,0,0,0-5.4-.7c-4.3.1-8.3,1.9-8.3,7.1,0,4.2,3.1,7.2,8.2,7.1,3.5,0,4.8-1.1,5.9-1a1.29,1.29,0,0,1,1.1.5v-7.2c0-.2.1-.3.1-.4q.3-.15.3-.3Z" transform="translate(-110.05 -71.81)"/><path class="cls-1" d="M517.95,149.71c-.2-.3-.4-.4-.5-.7a2.3,2.3,0,0,1-.4-1.4v-6.2c0-.2-.1,0,0-.4s.1-.5.2-.8h-2.9a1.16,1.16,0,0,1,.5.7,2.38,2.38,0,0,1,.3,1.4v3.6c0,1.9-2,2.7-3.9,2.8-1.5.1-3.6-.5-3.6-2.6v-5.2a.76.76,0,0,1,.1-.4c0-.1.1-.2.1-.4h-3a2.34,2.34,0,0,1,.7.7,2.54,2.54,0,0,1,.3,1.5v3.8c0,3,2.6,4.1,5,4a7.16,7.16,0,0,0,4.6-1.6,2.52,2.52,0,0,1,.2.6.81.81,0,0,0,.9.5h1.4Z" transform="translate(-110.05 -71.81)"/><path class="cls-1" d="M531.85,149.71a2.09,2.09,0,0,1-.4-.6,2.54,2.54,0,0,1-.3-1.5v-4.1c0-3-2.6-3.9-5-3.9a7.27,7.27,0,0,0-4.6,1.7v-1.4c-.1.1-.1.1-.2.1a.37.37,0,0,1-.3.1h-2.2a2.34,2.34,0,0,1,.7.7,2,2,0,0,1,.4,1.3v5.4a2.12,2.12,0,0,1-.4,1.4,2.51,2.51,0,0,1-.7.8h3.8a1.79,1.79,0,0,1-.5-.7,2.23,2.23,0,0,1-.3-1.4v-3.5c0-2,2.1-2.9,3.9-3.1,1.5-.2,3.5.5,3.5,2.6v4a2,2,0,0,1-.3,1.1,2.84,2.84,0,0,1-.6.9h3.5Z" transform="translate(-110.05 -71.81)"/><path class="cls-1" d="M545.55,149.71a2.18,2.18,0,0,1-.5-.8,3.19,3.19,0,0,1-.3-1.4v-11a.9.9,0,0,1,.1-.5c.1-.2.2-.2.3-.3h-3.4a2.55,2.55,0,0,1,.7,1,3,3,0,0,1,.3,1.6v2.6a6.89,6.89,0,0,0-4.3-1.2c-3.5,0-5.8,2.3-5.7,5.1,0,3.5,2.3,5.3,5.9,5.3a6.71,6.71,0,0,0,4.4-1.5,1.06,1.06,0,0,0,1.2,1.2h1.3Zm-2.6-4.9c-.1,2.1-1.3,3.7-4.1,3.7-2.6,0-4.3-1.6-4.1-3.8a3.72,3.72,0,0,1,3.9-3.6c2.3,0,4.4,1.3,4.3,3.7Z" transform="translate(-110.05 -71.81)"/><path class="cls-1" d="M117.55,180.41c2.7,0,3.4-2.7,3.6-3.5H120c-.3,1.5-1.1,2.6-2.4,2.6-2.4,0-2-2.2-1.3-5s1-5,3.5-5c1.4,0,1.6,1.2,1.2,2.4h1c.1-.6.8-3.3-2.1-3.3-3.7,0-4.2,3.7-4.7,5.9s-1.4,5.9,2.3,5.9Z" transform="translate(-110.05 -71.81)"/><polygon class="cls-1" points="17.2 97.11 14.8 108.41 20.1 108.41 20.2 107.61 16 107.61 17 103 20.9 103 21.1 102.2 17.1 102.2 18 97.91 22.2 97.91 22.4 97.11 17.2 97.11"/><path class="cls-1" d="M138.35,174.71c2.2,0,1.4,2.2,1.3,2.7a17,17,0,0,0-.4,2.8h1c.1-.4.1-.9.2-1.3.9-4,.8-4.2-.7-4.6h0c1.6-.3,2-1.3,2.3-2.7.4-2,0-2.7-2.2-2.7h-3.1l-2.4,11.3h1l1.2-5.5h1.8Zm-.8-5h2.1c1.2,0,1.7.3,1.4,1.9-.4,1.9-1.2,2.3-2.7,2.3h-1.6l.8-4.2Z" transform="translate(-110.05 -71.81)"/><polygon class="cls-1" points="36.6 108.41 37.6 108.41 39.8 97.91 42.6 97.91 42.8 97.11 36.3 97.11 36.1 97.91 38.8 97.91 36.6 108.41"/><polygon class="cls-1" points="46.8 97.11 44.4 108.41 45.4 108.41 47.8 97.11 46.8 97.11"/><polygon class="cls-1" points="50.3 108.41 51.3 108.41 52.5 103 56 103 56.2 102.2 52.7 102.2 53.6 97.91 57.3 97.91 57.5 97.11 52.7 97.11 50.3 108.41"/><polygon class="cls-1" points="61.6 97.11 59.2 108.41 60.2 108.41 62.6 97.11 61.6 97.11"/><polygon class="cls-1" points="67.6 97.11 65.2 108.41 70.4 108.41 70.6 107.61 66.4 107.61 67.3 103 71.3 103 71.5 102.2 67.5 102.2 68.4 97.91 72.6 97.91 72.7 97.11 67.6 97.11"/><path class="cls-1" d="M188,169.71h1.3c2.8,0,3,.9,2.3,4.2-1,4.6-1.5,5.4-4.5,5.4h-1.2l2.1-9.6Zm-3.3,10.5h2.6c3.4,0,4.4-1.9,5.2-5.6.8-3.9.8-5.7-2.3-5.7h-3l-2.5,11.3Z" transform="translate(-110.05 -71.81)"/><path class="cls-1" d="M202,180.21h1l1.1-5.3H206c1.9,0,2.9-1,3.4-3.3.6-2.6-1-2.7-1.9-2.7h-3.1l-2.4,11.3Zm3.2-10.5H207c.9,0,1.7.2,1.3,2.1s-1.2,2.3-2.2,2.3h-1.9l1-4.4Z" transform="translate(-110.05 -71.81)"/><path class="cls-1" d="M215,168.91h-1l-1.7,7.9c-.6,2.9.8,3.7,2.5,3.7s3.5-.8,4.1-3.7l1.7-7.9h-1l-1.5,7.1c-.3,1.5-.8,3.6-3.1,3.6s-1.9-2.1-1.5-3.6l1.5-7.1Z" transform="translate(-110.05 -71.81)"/><path class="cls-1" d="M225.25,173.91l.9-4.2h2c.8,0,1.8,0,1.4,1.9-.3,1.3-.9,2.3-2.4,2.3h-1.9Zm.9,6.3c1.9,0,3.1-1.1,3.5-3.2.3-1.4.1-2.4-1.3-2.7h0c1.5-.4,1.9-1.3,2.2-2.7.4-2-.3-2.7-2.1-2.7h-3.2l-2.4,11.3h3.3Zm-1.1-5.4h2c1.7,0,1.7,1.4,1.5,2.4-.4,1.7-1.3,2.2-2.9,2.2H224l1-4.6Z" transform="translate(-110.05 -71.81)"/><polygon class="cls-1" points="128.1 108.41 128.2 107.61 124.5 107.61 126.7 97.11 125.7 97.11 123.3 108.41 128.1 108.41"/><polygon class="cls-1" points="134.6 97.11 132.2 108.41 133.2 108.41 135.6 97.11 134.6 97.11"/><path class="cls-1" d="M251.35,180.41c2.7,0,3.4-2.7,3.6-3.5h-1.1c-.3,1.5-1.1,2.6-2.4,2.6-2.4,0-2-2.2-1.3-5s1-5,3.5-5c1.4,0,1.6,1.2,1.2,2.4h1c.1-.6.8-3.3-2.1-3.3-3.7,0-4.2,3.7-4.7,5.9s-1.4,5.9,2.3,5.9Z" transform="translate(-110.05 -71.81)"/><path class="cls-1" d="M269.75,168.91l-6,11.3h1l1.5-3h4.4l.3,3H272l-1.1-11.3Zm-3,7.5L270,170h0l.6,6.4Z" transform="translate(-110.05 -71.81)"/><path class="cls-1" d="M279.15,180.41c2.7,0,3.4-2.7,3.6-3.5h-1.1c-.3,1.5-1.1,2.6-2.4,2.6-2.4,0-2-2.2-1.3-5s1-5,3.5-5c1.4,0,1.6,1.2,1.2,2.4h1c.1-.6.8-3.3-2.1-3.3-3.7,0-4.2,3.7-4.7,5.9-.3,2.2-1.4,5.9,2.3,5.9Z" transform="translate(-110.05 -71.81)"/><path class="cls-1" d="M289.55,180.41c2.7,0,3.4-2.7,3.6-3.5H292c-.3,1.5-1.1,2.6-2.4,2.6-2.4,0-2-2.2-1.3-5s1-5,3.5-5c1.4,0,1.6,1.2,1.2,2.4h1c.1-.6.8-3.3-2.1-3.3-3.7,0-4.2,3.7-4.7,5.9-.3,2.2-1.4,5.9,2.3,5.9Z" transform="translate(-110.05 -71.81)"/><path class="cls-1" d="M300.25,179.61c-2.4,0-2-2.2-1.3-5s1-5,3.5-5,2,2.2,1.3,5-1.1,5-3.5,5Zm-.2.8c3.7,0,4.2-3.7,4.7-5.9s1.5-5.9-2.2-5.9-4.2,3.7-4.7,5.9-1.5,5.9,2.2,5.9Z" transform="translate(-110.05 -71.81)"/><path class="cls-1" d="M311.55,168.91h-1l-1.7,7.9c-.6,2.9.8,3.7,2.5,3.7s3.5-.8,4.1-3.7l1.7-7.9h-1l-1.5,7.1c-.3,1.5-.8,3.6-3.1,3.6s-1.9-2.1-1.5-3.6l1.5-7.1Z" transform="translate(-110.05 -71.81)"/><polygon class="cls-1" points="210.5 108.41 212.7 98.41 212.7 98.41 215.2 108.41 216.7 108.41 219.1 97.11 218.1 97.11 216 107 216 107 213.5 97.11 212 97.11 209.5 108.41 210.5 108.41"/><polygon class="cls-1" points="223.5 108.41 224.5 108.41 226.7 97.91 229.5 97.91 229.7 97.11 223.1 97.11 223 97.91 225.7 97.91 223.5 108.41"/><path class="cls-1" d="M345.55,168.91l-6,11.3h1l1.5-3h4.4l.3,3h1.1l-1.1-11.3Zm-3,7.5,3.3-6.4h0l.6,6.4Z" transform="translate(-110.05 -71.81)"/><polygon class="cls-1" points="242.8 108.41 244.9 98.41 245 98.41 247.4 108.41 249 108.41 251.4 97.11 250.4 97.11 248.3 107 248.2 107 245.7 97.11 244.2 97.11 241.8 108.41 242.8 108.41"/><polygon class="cls-1" points="255.7 108.41 256.8 108.41 259 97.91 261.7 97.91 261.9 97.11 255.4 97.11 255.2 97.91 258 97.91 255.7 108.41"/><path class="cls-1" d="M381.15,171.81c.3-1.6.2-3.1-2.2-3.1-1.9,0-3.3.8-3.7,2.8-.2,1.1-.3,1.8,1.6,3.2,1.4,1,2.3,1.4,2,3a2.29,2.29,0,0,1-2.4,2c-2,0-1.8-1.3-1.6-2.6h-1c-.6,2.2.2,3.4,2.4,3.4a3.5,3.5,0,0,0,3.7-3c.5-2.2-.9-2.5-2.1-3.5s-1.9-1-1.6-2.7a2.14,2.14,0,0,1,2.4-1.8c1.5,0,1.7.8,1.4,2.2h1.1Z" transform="translate(-110.05 -71.81)"/><path class="cls-1" d="M395,168.91l-6,11.3h1l1.5-3h4.4l.3,3h1.1l-1.1-11.3Zm-3,7.5,3.3-6.4h0l.6,6.4Z" transform="translate(-110.05 -71.81)"/><polygon class="cls-1" points="292.3 108.41 294.5 98.41 294.5 98.41 297 108.41 298.5 108.41 300.9 97.11 299.9 97.11 297.8 107 297.8 107 295.3 97.11 293.8 97.11 291.3 108.41 292.3 108.41"/><path class="cls-1" d="M416.75,169.71H418c2.8,0,3,.9,2.3,4.2-1,4.6-1.5,5.4-4.5,5.4h-1.2l2.1-9.6Zm-3.2,10.5h2.6c3.4,0,4.4-1.9,5.2-5.6.8-3.9.8-5.7-2.3-5.7h-3l-2.5,11.3Z" transform="translate(-110.05 -71.81)"/><path class="cls-1" d="M433.95,180.41c2.7,0,3.4-2.7,3.6-3.5h-1.1c-.3,1.5-1.1,2.6-2.4,2.6-2.4,0-2-2.2-1.3-5s1-5,3.5-5c1.4,0,1.6,1.2,1.2,2.4h1c.1-.6.8-3.3-2.1-3.3-3.7,0-4.2,3.7-4.7,5.9-.3,2.2-1.3,5.9,2.3,5.9Z" transform="translate(-110.05 -71.81)"/><path class="cls-1" d="M444.65,179.61c-2.4,0-2-2.2-1.3-5s1-5,3.5-5,2,2.2,1.3,5-1,5-3.5,5Zm-.2.8c3.7,0,4.2-3.7,4.7-5.9s1.5-5.9-2.2-5.9-4.2,3.7-4.7,5.9-1.5,5.9,2.2,5.9Z" transform="translate(-110.05 -71.81)"/><polygon class="cls-1" points="343.7 108.41 345.8 98.41 345.8 98.41 348.3 108.41 349.8 108.41 352.2 97.11 351.2 97.11 349.1 107 349.1 107 346.6 97.11 345.1 97.11 342.7 108.41 343.7 108.41"/><path class="cls-1" d="M472.45,171.81c.3-1.6.2-3.1-2.2-3.1-1.9,0-3.3.8-3.7,2.8-.2,1.1-.3,1.8,1.6,3.2,1.4,1,2.3,1.4,2,3a2.29,2.29,0,0,1-2.4,2c-2,0-1.8-1.3-1.6-2.6h-1c-.6,2.2.2,3.4,2.4,3.4a3.5,3.5,0,0,0,3.7-3c.5-2.2-.9-2.5-2.1-3.5s-1.9-1-1.6-2.7a2.14,2.14,0,0,1,2.4-1.8c1.5,0,1.7.8,1.4,2.2h1.1Z" transform="translate(-110.05 -71.81)"/><path class="cls-1" d="M478.55,168.91h-1l-1.7,7.9c-.6,2.9.8,3.7,2.5,3.7s3.5-.8,4.1-3.7l1.7-7.9h-1l-1.5,7.1c-.3,1.5-.8,3.6-3.1,3.6s-1.9-2.1-1.5-3.6l1.5-7.1Z" transform="translate(-110.05 -71.81)"/><polygon class="cls-1" points="381.2 108.41 381.4 107.61 377.6 107.61 379.8 97.11 378.8 97.11 376.4 108.41 381.2 108.41"/><polygon class="cls-1" points="385.8 108.41 386.8 108.41 389 97.91 391.8 97.91 392 97.11 385.4 97.11 385.3 97.91 388 97.91 385.8 108.41"/><path class="cls-1" d="M507.85,168.91l-6,11.3h1l1.5-3h4.4l.3,3h1.1l-1.1-11.3Zm-3,7.5,3.3-6.4h0l.6,6.4Z" transform="translate(-110.05 -71.81)"/><polygon class="cls-1" points="405.1 108.41 407.2 98.41 407.3 98.41 409.7 108.41 411.3 108.41 413.7 97.11 412.7 97.11 410.6 107 410.5 107 408 97.11 406.5 97.11 404.1 108.41 405.1 108.41"/><polygon class="cls-1" points="418 108.41 419 108.41 421.3 97.91 424 97.91 424.2 97.11 417.7 97.11 417.5 97.91 420.3 97.91 418 108.41"/><path class="cls-1" d="M543.35,171.81c.3-1.6.2-3.1-2.2-3.1-1.9,0-3.3.8-3.7,2.8-.2,1.1-.3,1.8,1.6,3.2,1.4,1,2.3,1.4,2,3a2.29,2.29,0,0,1-2.4,2c-2,0-1.8-1.3-1.6-2.6h-1c-.6,2.2.2,3.4,2.4,3.4a3.5,3.5,0,0,0,3.7-3c.5-2.2-.9-2.5-2.1-3.5s-1.9-1-1.6-2.7a2.14,2.14,0,0,1,2.4-1.8c1.5,0,1.7.8,1.4,2.2h1.1Z" transform="translate(-110.05 -71.81)"/><line class="cls-1" x1="1" y1="87.6" x2="434.3" y2="87.6"/><path class="cls-2" d="M161,108.61c-.5-10.6-7.3-13.2-15.3-14.1l-14.5-1.8c-4.6-.6-10.5-2.5-10-6.7,1-7.2,9.4-8.2,16.7-8.2,9.1-.1,16.5,2.5,18.4,4l2.3-8.1a9.42,9.42,0,0,1-2.9.1c-3.6-.6-11-2.1-18.1-2-11.9.3-23.6,3.3-24.3,14.4-.8,10.7,9.8,12.3,18.6,13.4l9.3,1.1c5.5.6,11.2,1.9,11.5,8.3s-7.3,10.2-15.3,10.2c-9.6-.1-19.7-3.9-24.3-5.5l1.8,9.6a18.1,18.1,0,0,0,2.3-.3c2.1-.2,11.6,2.1,18.9,2.1,12.7.1,25.4-4.9,24.9-16.5Z" transform="translate(-110.05 -71.81)"/><path class="cls-2" d="M211.35,124.61a9.93,9.93,0,0,1-2.7-3.4,11.52,11.52,0,0,1-1.5-6.1v-14.3c0-10-6.5-13.8-17.1-13.8-6.1-.1-9.6,1.5-15.9,1.7a7.31,7.31,0,0,1-3.3-.8l-3.1,9.5c7.5-3.5,12.8-4.4,21.2-4.7,7.1-.2,12,2.2,11,9.1l-3.8.1c-13,.5-30.9.4-31.1,12.7-.1,8.3,8.9,11.5,17,11.3,3.6-.1,11.2.6,16.9-2.9l2.9-1.7a4.18,4.18,0,0,0,1.3,2.1,3.65,3.65,0,0,0,3.2,1.2h5ZM200,111.21c.1,7.1-8.4,9.6-15.4,9.5-5.4-.1-13-1.5-12.6-6,.7-6.8,13.3-7.3,22.6-7.7l5.4-.3v4.5Z" transform="translate(-110.05 -71.81)"/><path class="cls-2" d="M229.85,124.61a10.16,10.16,0,0,1-2.2-3.2,11.16,11.16,0,0,1-1.1-5.1V76a4.13,4.13,0,0,1,.4-2.2,4.73,4.73,0,0,1,.7-1.2h-12a6.4,6.4,0,0,1,2.4,2.5,9.62,9.62,0,0,1,1.3,4.7v37.3a9.38,9.38,0,0,1-1.3,4.8,9.52,9.52,0,0,1-2.5,2.8h14.3Z" transform="translate(-110.05 -71.81)"/><path class="cls-2" d="M271.65,87.41a6.21,6.21,0,0,1-2.5,1.4,6.82,6.82,0,0,1-2.9.5h-14.5V77.11a1.94,1.94,0,0,1,.3-1.3,2.18,2.18,0,0,1,.5-.8h-8.4a2.41,2.41,0,0,1,.6.8,2.12,2.12,0,0,1,.4,1.4v7.7c0,4.1-2.3,4.8-5,4.9a4.57,4.57,0,0,1-3.7-1.6l-2.5,8.7c.5-.3.8-.6,1.3-.9a6,6,0,0,1,2.3-.6h7.3v14.2c0,8.4,3.4,16.1,15,15.7,4.1-.2,6.2-.8,9.6-1a7.58,7.58,0,0,1,1.6.3v-7.7c-3.4,1.5-5.6,2.8-9.4,2.7-7.7-.3-9.6-4.7-9.6-10V95.11h13.6a4.21,4.21,0,0,1,1.8.4,4.28,4.28,0,0,1,1.3.9l2.9-9Z" transform="translate(-110.05 -71.81)"/><path class="cls-2" d="M351.65,124.61a11.87,11.87,0,0,1-1.6-2.3,10.77,10.77,0,0,1-1-5.6v-15.4c0-8.8-7.5-14.2-17.9-13.9-6.5.3-11,1.6-15.9,5.8-3.4-3.9-5.8-5.8-14.8-6-6.3-.1-10.3,1.7-15.2,5.6v-4.4a6.12,6.12,0,0,1-.6.4,2.15,2.15,0,0,1-1.1.2h-8.1a8.82,8.82,0,0,1,2.4,2.7,7.78,7.78,0,0,1,1.4,4.6v19.9a9.57,9.57,0,0,1-1.4,5.3,13.76,13.76,0,0,1-2.4,3h14a9.14,9.14,0,0,1-2-2.4,9.26,9.26,0,0,1-1.3-5.1v-12.9c0-7.2,7.4-11.1,14.6-11.4,5.6-.3,9.9,3.2,9.9,8.1v14.5a13.67,13.67,0,0,1-3.5,9.3h13.6a7.54,7.54,0,0,1-2.3-2.7,8.39,8.39,0,0,1-1-4.4v-14.8c0-6.7,7.3-9.7,14-9.8,7.2-.1,10.8,3.9,10.8,9.4v14.8a8.68,8.68,0,0,1-1,4.2,10.32,10.32,0,0,1-2.1,3.3Z" transform="translate(-110.05 -71.81)"/><path class="cls-2" d="M402.35,124.61a9.93,9.93,0,0,1-2.7-3.4,11.52,11.52,0,0,1-1.5-6.1v-14.3c0-10-6.5-13.8-17.1-13.8-6.2-.1-9.6,1.5-15.9,1.7a7.31,7.31,0,0,1-3.3-.8l-3.1,9.5c7.5-3.5,12.8-4.4,21.2-4.7,7.1-.2,12,2.2,11,9.1l-3.7.1c-13.1.5-30.9.4-31.1,12.7-.1,8.3,8.9,11.5,17.1,11.3,3.6-.1,11.2.6,16.9-2.9l2.9-1.7a4.18,4.18,0,0,0,1.3,2.1,3.65,3.65,0,0,0,3.2,1.2h4.8Zm-11.2-13.4c.1,7.1-8.4,9.6-15.4,9.5-5.4-.1-13-1.5-12.6-6,.7-6.8,13.3-7.3,22.6-7.7l5.4-.3v4.5Z" transform="translate(-110.05 -71.81)"/><path class="cls-2" d="M441.85,88.61a51.16,51.16,0,0,0-11.4-1.3c-8.6-.1-12.1,4.4-14.5,6.8v-5.6a6.12,6.12,0,0,1-.6.4,2.15,2.15,0,0,1-1.1.2h-7.9a8.82,8.82,0,0,1,2.4,2.7,7.78,7.78,0,0,1,1.4,4.6v19.9a14.81,14.81,0,0,1-.7,5.3,8.62,8.62,0,0,1-2.4,3h13.3a9.14,9.14,0,0,1-2-2.4,9.26,9.26,0,0,1-1.3-5.1v-10c0-7.6,5.6-14.2,13.6-14.1,5.6.1,8.3,2.5,9.7,2.9l1.5-7.3Z" transform="translate(-110.05 -71.81)"/><path class="cls-2" d="M486.95,113.21c-.1-7.2-5.9-9.3-11.7-9.6l-12.3-.7c-3.7-.1-9.4-.6-8.7-4.2,1.1-5.6,7.3-5.6,12.7-5.9,1.9-.1,10.8.1,16.2,3.6l2.7-7.5a14.15,14.15,0,0,1-2.9.2c-3.4-.1-7.1-1.6-15.9-1.6-9.1,0-20.2,2.8-20.2,12.2,0,6.1,7,8.8,13.2,9l10.9.4c3.8.1,8.9.8,8.6,4.9-.4,5.7-7.4,6.3-12.2,6.5-8.6.3-12.7-2.9-21.4-5.5l3,10.1a15.94,15.94,0,0,1,3-.6c4.6.1,9.3,1.3,15.2,1.3,9.7,0,19.9-3.7,19.8-12.6Z" transform="translate(-110.05 -71.81)"/><path class="cls-2" d="M539.55,124.61a27.47,27.47,0,0,1-2.2-2.6,8.52,8.52,0,0,1-1.2-4.9v-16.9c0-8.6-7.4-13.7-17.4-13.4a26.63,26.63,0,0,0-17.1,6.3V78.41a9.19,9.19,0,0,1,.6-3.3,7,7,0,0,1,1.5-2.5H492a8.11,8.11,0,0,1,1.7,2.8,9.19,9.19,0,0,1,.6,3.3v38.2a8.15,8.15,0,0,1-.8,4.1,8.35,8.35,0,0,1-2.6,3.6h13.9a8.19,8.19,0,0,1-2.2-2.7,15.81,15.81,0,0,1-1.3-6.6v-7.9c0-7.7,5.4-14.6,16.7-14.6,6.7-.1,10.8,3,10.8,8.2v16.3a9.68,9.68,0,0,1-.8,4.1,9.11,9.11,0,0,1-2.2,3.3h13.7Z" transform="translate(-110.05 -71.81)"/><path class="cls-2" d="M223.25,144.41c-.1-2.9-2-3.6-4.1-3.8l-3.9-.5c-1.2-.2-2.8-.7-2.7-1.8.3-2,2.6-2.2,4.5-2.2a10,10,0,0,1,5,1.1l.6-2.2a2.15,2.15,0,0,1-.8,0,20.46,20.46,0,0,0-4.9-.5c-3.2.1-6.4.9-6.6,3.9s2.7,3.3,5,3.6l2.5.3c1.5.2,3,.5,3.1,2.2s-2,2.8-4.1,2.8a22.26,22.26,0,0,1-6.6-1.5l.5,2.6a1.27,1.27,0,0,0,.6-.1c.6-.1,3.1.6,5.1.6,3.5,0,6.9-1.4,6.8-4.5Z" transform="translate(-110.05 -71.81)"/><path class="cls-2" d="M236.85,148.71a3.11,3.11,0,0,1-.7-.9,3.17,3.17,0,0,1-.4-1.6v-3.9c0-2.7-1.7-3.7-4.6-3.7-1.7,0-2.6.4-4.3.5a2.92,2.92,0,0,1-.9-.2l-.8,2.6a14,14,0,0,1,5.7-1.3c1.9-.1,3.2.6,3,2.5h-1c-3.5.1-8.4.1-8.4,3.4,0,2.2,2.4,3.1,4.6,3.1,1,0,3,.2,4.6-.8l.8-.5a2.09,2.09,0,0,0,.4.6,1.22,1.22,0,0,0,.9.3h1.1Zm-3.1-3.6c0,1.9-2.3,2.6-4.2,2.6-1.5,0-3.5-.4-3.4-1.6.2-1.9,3.6-2,6.1-2.1l1.5-.1v1.2Z" transform="translate(-110.05 -71.81)"/><path class="cls-2" d="M241.85,148.71a2.84,2.84,0,0,1-.6-.9,3.19,3.19,0,0,1-.3-1.4v-10.8a1.27,1.27,0,0,1,.1-.6c.1-.1.1-.2.2-.3H238a2.34,2.34,0,0,1,.7.7,2.5,2.5,0,0,1,.3,1.3v10.1a2.2,2.2,0,0,1-.4,1.3,5,5,0,0,1-.7.8h3.9Z" transform="translate(-110.05 -71.81)"/><path class="cls-2" d="M253.15,138.71a1.61,1.61,0,0,1-.7.4,2.2,2.2,0,0,1-.8.1h-3.9v-3.3a.76.76,0,0,1,.1-.4.35.35,0,0,1,.1-.2h-2.3l.2.2c.1.1.1.2.1.4V138c0,1.1-.6,1.3-1.4,1.3a1.28,1.28,0,0,1-1-.4l-.7,2.3a.52.52,0,0,1,.4-.2,1.42,1.42,0,0,1,.6-.2h2v3.8c0,2.3.9,4.4,4,4.3,1.1-.1,1.7-.2,2.6-.3.2,0,.3.1.4.1v-2.1a4.51,4.51,0,0,1-2.5.7,2.38,2.38,0,0,1-2.6-2.7v-3.9h3.7a.9.9,0,0,1,.5.1l.4.2.8-2.3Z" transform="translate(-110.05 -71.81)"/><path class="cls-2" d="M274.75,148.71a2.09,2.09,0,0,1-.4-.6,2.54,2.54,0,0,1-.3-1.5v-4.1c0-2.4-2-3.8-4.9-3.8a6,6,0,0,0-4.3,1.6c-.9-1-1.6-1.6-4-1.6a6.1,6.1,0,0,0-4.1,1.5v-1.3c-.1.1-.1.1-.2.1a.37.37,0,0,1-.3.1H254a2.34,2.34,0,0,1,.7.7,2,2,0,0,1,.4,1.3v5.4a2.12,2.12,0,0,1-.4,1.4,5,5,0,0,1-.7.8h3.8a1.79,1.79,0,0,1-.5-.7,2.3,2.3,0,0,1-.4-1.4v-3.5c0-2,2-3,4-3.1a2.37,2.37,0,0,1,2.7,2.2v3.9a3.53,3.53,0,0,1-.3,1.4,3.38,3.38,0,0,1-.7,1.1h3.7a2,2,0,0,1-.6-.7,2.38,2.38,0,0,1-.3-1.2v-4c0-1.8,2-2.6,3.8-2.6s2.9,1,2.9,2.5v4a2,2,0,0,1-.3,1.1,2.84,2.84,0,0,1-.6.9h3.5Z" transform="translate(-110.05 -71.81)"/><path class="cls-2" d="M288.45,148.71a3.11,3.11,0,0,1-.7-.9,3.17,3.17,0,0,1-.4-1.6v-3.9c0-2.7-1.7-3.7-4.6-3.7-1.7,0-2.6.4-4.3.5a2.92,2.92,0,0,1-.9-.2l-.8,2.6a14,14,0,0,1,5.7-1.3c1.9-.1,3.2.6,3,2.5h-1c-3.5.1-8.4.1-8.4,3.4,0,2.2,2.4,3.1,4.6,3.1,1,0,3,.2,4.6-.8l.8-.5a2.09,2.09,0,0,0,.4.6,1.22,1.22,0,0,0,.9.3h1.1Zm-3-3.6c0,1.9-2.3,2.6-4.2,2.6-1.5,0-3.5-.4-3.4-1.6.2-1.9,3.6-2,6.1-2.1l1.5-.1v1.2Z" transform="translate(-110.05 -71.81)"/><path class="cls-2" d="M299.15,139a21.5,21.5,0,0,0-3.1-.4,4.9,4.9,0,0,0-3.9,1.8v-1.5c-.1.1-.1.1-.2.1a.37.37,0,0,1-.3.1h-2.1a2.34,2.34,0,0,1,.7.7,2,2,0,0,1,.4,1.3v5.4a3,3,0,0,1-.2,1.4,2.7,2.7,0,0,1-.7.8h3.6a1.79,1.79,0,0,1-.5-.7,2.23,2.23,0,0,1-.3-1.4v-2.7a3.65,3.65,0,0,1,3.7-3.8,5.51,5.51,0,0,1,2.6.8l.3-1.9Z" transform="translate(-110.05 -71.81)"/><path class="cls-2" d="M311.35,145.61c0-1.9-1.6-2.5-3.2-2.6l-3.3-.2c-1,0-2.5-.2-2.3-1.1.3-1.5,2-1.5,3.4-1.6a8.8,8.8,0,0,1,4.4,1l.7-2c-.3,0-.5.1-.8.1a41.76,41.76,0,0,0-4.3-.4c-2.5,0-5.5.8-5.5,3.3,0,1.7,1.9,2.4,3.6,2.4l2.9.1c1,0,2.4.2,2.3,1.3-.1,1.5-2,1.7-3.3,1.7-2.3.1-3.4-.8-5.8-1.5l.8,2.7a2.35,2.35,0,0,1,.8-.2c1.2,0,2.5.3,4.1.3,2.8.1,5.5-.9,5.5-3.3Z" transform="translate(-110.05 -71.81)"/><path class="cls-2" d="M325.55,148.71c-.2-.3-.4-.4-.6-.7a2.08,2.08,0,0,1-.3-1.3v-4.6c0-2.3-2-3.7-4.7-3.6a7.56,7.56,0,0,0-4.6,1.7v-4a2.92,2.92,0,0,1,.2-.9,1.61,1.61,0,0,1,.4-.7h-3.2a5.58,5.58,0,0,1,.5.8,2.39,2.39,0,0,1,.2.9v10.4a2.15,2.15,0,0,1-.2,1.1,3.59,3.59,0,0,1-.7,1h3.8a2,2,0,0,1-.6-.7,4.84,4.84,0,0,1-.3-1.8v-2.1c0-2.1,1.5-3.9,4.5-4,1.8,0,2.9.8,2.9,2.2v4.4a4.25,4.25,0,0,1-.2,1.1,2.84,2.84,0,0,1-.6.9h3.5Z" transform="translate(-110.05 -71.81)"/><path class="cls-2" d="M329.55,147.81a1.5,1.5,0,0,0-1.5-1.6,1.36,1.36,0,0,0-1.4,1.4c0,1,.7.9.6,1.5a1.29,1.29,0,0,1-.9,1.2l1.1,1,.6-.6a4.34,4.34,0,0,0,1.5-2.9Z" transform="translate(-110.05 -71.81)"/><path class="cls-2" d="M350.15,135c-.2,0-.4.1-.6,0a28.89,28.89,0,0,0-4.9-.6c-5-.1-8.5,3-8.4,7.4.1,4.1,2.5,7,7.9,7.1,2.7.1,3.3-.6,5.3-.7h.7v-2.5a13,13,0,0,1-5.8,1.4c-3.8.1-6-2.3-6-5.4,0-3.4,3-5.8,6.6-5.8a13,13,0,0,1,4.7,1.1l.5-2Z" transform="translate(-110.05 -71.81)"/><path class="cls-2" d="M355,148.71a2.84,2.84,0,0,1-.6-.9,3.19,3.19,0,0,1-.3-1.4v-10.8a1.27,1.27,0,0,1,.1-.6c.1-.1.1-.2.2-.3h-3.2a2.34,2.34,0,0,1,.7.7,2.5,2.5,0,0,1,.3,1.3v10.1a2.2,2.2,0,0,1-.4,1.3,5,5,0,0,1-.7.8H355Z" transform="translate(-110.05 -71.81)"/><path class="cls-2" d="M368.55,145c.4-3-1.2-6.4-6.1-6.3-4.2.1-6.1,2.2-6.2,5.4,0,3.8,3.3,5.1,6.5,5,2.4,0,3-.5,4.5-.5.3,0,.4.1.6.1v-2.4a11,11,0,0,1-5.1,1.2c-2.4,0-4-.7-4.4-2.8h9.5a.9.9,0,0,1,.5.1l.2.2Zm-2-1.8h-8.3c.2-2.1,2.2-3.1,4.2-3.1s3.9,1,4.1,3.1Z" transform="translate(-110.05 -71.81)"/><path class="cls-2" d="M382.15,148.71a3.11,3.11,0,0,1-.7-.9,3.17,3.17,0,0,1-.4-1.6v-3.9c0-2.7-1.8-3.7-4.6-3.7-1.7,0-2.6.4-4.3.5a2.92,2.92,0,0,1-.9-.2l-.8,2.6a14,14,0,0,1,5.7-1.3c1.9-.1,3.2.6,3,2.5h-1c-3.5.1-8.4.1-8.4,3.4,0,2.2,2.4,3.1,4.6,3.1,1,0,3,.2,4.6-.8l.8-.5a2.09,2.09,0,0,0,.4.6,1.22,1.22,0,0,0,.9.3h1.1Zm-3-3.6c0,1.9-2.3,2.6-4.2,2.6-1.5,0-3.5-.4-3.4-1.6.2-1.9,3.6-2,6.1-2.1l1.5-.1v1.2Z" transform="translate(-110.05 -71.81)"/><path class="cls-2" d="M397.25,139.11h-3.4c.2.3.3.3.3.8a5,5,0,0,1-1,2.4l-2.7,4.7-3.2-5.8a3,3,0,0,1-.4-1.1,2.39,2.39,0,0,1,.2-.9h-3.7a18.26,18.26,0,0,1,1.3,1.6c.4.8.8,1.2,1.2,2l3,5.2c.1.2.2.3.2.5s-.1.2-.1.3h2.8a.35.35,0,0,0-.1-.2.9.9,0,0,1,.1-.5l3.2-5.7c.5-.8.9-1.4,1.3-2a6.42,6.42,0,0,1,1-1.3Z" transform="translate(-110.05 -71.81)"/><path class="cls-2" d="M410.65,145c.4-3-1.2-6.4-6.1-6.3-4.2.1-6.1,2.2-6.2,5.4,0,3.8,3.3,5.1,6.5,5,2.4,0,3-.5,4.5-.5.3,0,.4.1.6.1v-2.4a11.25,11.25,0,0,1-5.1,1.2c-2.4,0-4-.7-4.4-2.8h9.5a.9.9,0,0,1,.5.1.22.22,0,0,1,.2.2Zm-2-1.8h-8.3c.2-2.1,2.2-3.1,4.2-3.1s4,1,4.1,3.1Z" transform="translate(-110.05 -71.81)"/><path class="cls-2" d="M415.65,148.71a2.84,2.84,0,0,1-.6-.9,3.19,3.19,0,0,1-.3-1.4v-10.8a1.27,1.27,0,0,1,.1-.6c.1-.1.1-.2.2-.3h-3.2a2.34,2.34,0,0,1,.7.7,2.5,2.5,0,0,1,.3,1.3v10.1a2.2,2.2,0,0,1-.4,1.3,5,5,0,0,1-.7.8h3.9Z" transform="translate(-110.05 -71.81)"/><path class="cls-2" d="M429.25,148.71a3.11,3.11,0,0,1-.7-.9,3.17,3.17,0,0,1-.4-1.6v-3.9c0-2.7-1.8-3.7-4.6-3.7-1.7,0-2.6.4-4.3.5a2.92,2.92,0,0,1-.9-.2l-.8,2.6a14,14,0,0,1,5.7-1.3c1.9-.1,3.2.6,3,2.5h-1c-3.5.1-8.4.1-8.4,3.4,0,2.2,2.4,3.1,4.6,3.1,1,0,3,.2,4.6-.8l.8-.5a2.09,2.09,0,0,0,.4.6,1.22,1.22,0,0,0,.9.3h1.1Zm-3-3.6c0,1.9-2.3,2.6-4.2,2.6-1.5,0-3.5-.4-3.4-1.6.2-1.9,3.6-2,6.1-2.1l1.5-.1v1.2Z" transform="translate(-110.05 -71.81)"/><path class="cls-2" d="M443.25,148.71a2.09,2.09,0,0,1-.4-.6,2.54,2.54,0,0,1-.3-1.5v-4.1c0-3-2.6-3.9-5-3.9a7.27,7.27,0,0,0-4.6,1.7v-1.4c-.1.1-.1.1-.2.1a.37.37,0,0,1-.3.1h-2.2a2.34,2.34,0,0,1,.7.7,2,2,0,0,1,.4,1.3v5.4a2.12,2.12,0,0,1-.4,1.4,2.51,2.51,0,0,1-.7.8H434a1.79,1.79,0,0,1-.5-.7,2.23,2.23,0,0,1-.3-1.4v-3.5c0-2,2.1-2.9,3.9-3.1,1.5-.2,3.5.5,3.5,2.6v4a2,2,0,0,1-.3,1.1,2.84,2.84,0,0,1-.6.9h3.5Z" transform="translate(-110.05 -71.81)"/><path class="cls-2" d="M456.95,148.71a2.18,2.18,0,0,1-.5-.8,3.19,3.19,0,0,1-.3-1.4v-11a.9.9,0,0,1,.1-.5c.1-.2.2-.2.3-.3h-3.4a2.55,2.55,0,0,1,.7,1,3,3,0,0,1,.3,1.6v2.6a6.89,6.89,0,0,0-4.3-1.2c-3.5,0-5.8,2.3-5.7,5.1,0,3.5,2.3,5.3,5.9,5.3a6.71,6.71,0,0,0,4.4-1.5,1.06,1.06,0,0,0,1.2,1.2h1.3Zm-2.6-4.9c-.1,2.1-1.3,3.7-4.1,3.7-2.6,0-4.3-1.6-4.1-3.8a3.72,3.72,0,0,1,3.9-3.6c2.3,0,4.4,1.3,4.3,3.7Z" transform="translate(-110.05 -71.81)"/><path class="cls-2" d="M480.75,148.81l-.6-1.1a12,12,0,0,0-1.3-2.1,9.6,9.6,0,0,0-1.5-1.4l.6-1.3a1.22,1.22,0,0,1,.9-.8,3.53,3.53,0,0,1,1.4-.1,2.35,2.35,0,0,1-.2-.8,1.85,1.85,0,0,1,.2-.7H476a1.78,1.78,0,0,1,.4,1,5.34,5.34,0,0,1-.5,1.8l-6.4-2.8c-1-.5-2-.9-2.1-2-.3-1.7,2-2.3,4-2.2a11,11,0,0,1,4.8,1.2V135a2.92,2.92,0,0,1-.9.2,18.1,18.1,0,0,0-4-.4c-3.2,0-6.2,1.1-5.9,3.8a4.13,4.13,0,0,0,1.1,2.3,4,4,0,0,0-2.6,3.7c-.1,3,2.8,4.9,6,4.8a7.88,7.88,0,0,0,6.8-3.5l.6.6a3,3,0,0,1,1,1.8c0,.3-.1.4-.3.7h2.7Zm-5.5-4c-.9,2.1-3.7,3-5.1,3-2.1-.1-4.2-1.2-4.2-3.4a3,3,0,0,1,2.1-2.7l3.8,1.5a26.81,26.81,0,0,0,3.4,1.6Z" transform="translate(-110.05 -71.81)"/><path class="cls-2" d="M502.95,140.41h-7.1c-.2,0-.4,0-.5.2s-.2.2-.3.4l-.6,1.3a1.42,1.42,0,0,1,.6-.2,1.27,1.27,0,0,1,.6-.1h4.9v2.4c0,2.2-2.6,3-4.9,3-3.2.1-6.2-1.6-6.3-5.6,0-3.3,2.5-5.6,6.3-5.6a12.5,12.5,0,0,1,5.6,1.3l.6-2.2h-.8a28.19,28.19,0,0,0-5.4-.7c-4.3.1-8.3,1.9-8.3,7.1,0,4.2,3.1,7.2,8.2,7.1,3.5,0,4.8-1.1,5.9-1a1.29,1.29,0,0,1,1.1.5v-7.2c0-.2.1-.3.1-.4q.3-.15.3-.3Z" transform="translate(-110.05 -71.81)"/><path class="cls-2" d="M516.95,148.71c-.2-.3-.4-.4-.5-.7a2.3,2.3,0,0,1-.4-1.4v-6.2c0-.2-.1,0,0-.4s.1-.5.2-.8h-2.9a1.16,1.16,0,0,1,.5.7,2.38,2.38,0,0,1,.3,1.4v3.6c0,1.9-2,2.7-3.9,2.8-1.5.1-3.6-.5-3.6-2.6v-5.2a.76.76,0,0,1,.1-.4c0-.1.1-.2.1-.4h-3a2.34,2.34,0,0,1,.7.7,2.54,2.54,0,0,1,.3,1.5v3.8c0,3,2.6,4.1,5,4a7.16,7.16,0,0,0,4.6-1.6,2.52,2.52,0,0,1,.2.6.81.81,0,0,0,.9.5h1.4Z" transform="translate(-110.05 -71.81)"/><path class="cls-2" d="M530.85,148.71a2.09,2.09,0,0,1-.4-.6,2.54,2.54,0,0,1-.3-1.5v-4.1c0-3-2.6-3.9-5-3.9a7.27,7.27,0,0,0-4.6,1.7v-1.4c-.1.1-.1.1-.2.1a.37.37,0,0,1-.3.1h-2.2a2.34,2.34,0,0,1,.7.7,2,2,0,0,1,.4,1.3v5.4a2.12,2.12,0,0,1-.4,1.4,2.51,2.51,0,0,1-.7.8h3.8a1.79,1.79,0,0,1-.5-.7,2.23,2.23,0,0,1-.3-1.4v-3.5c0-2,2.1-2.9,3.9-3.1,1.5-.2,3.5.5,3.5,2.6v4a2,2,0,0,1-.3,1.1,2.84,2.84,0,0,1-.6.9h3.5Z" transform="translate(-110.05 -71.81)"/><path class="cls-2" d="M544.55,148.71a2.18,2.18,0,0,1-.5-.8,3.19,3.19,0,0,1-.3-1.4v-11a.9.9,0,0,1,.1-.5c.1-.2.2-.2.3-.3h-3.4a2.55,2.55,0,0,1,.7,1,3,3,0,0,1,.3,1.6v2.6a6.89,6.89,0,0,0-4.3-1.2c-3.5,0-5.8,2.3-5.7,5.1,0,3.5,2.3,5.3,5.9,5.3a6.71,6.71,0,0,0,4.4-1.5,1.06,1.06,0,0,0,1.2,1.2h1.3Zm-2.6-4.9c-.1,2.1-1.3,3.7-4.1,3.7-2.6,0-4.3-1.6-4.1-3.8a3.72,3.72,0,0,1,3.9-3.6c2.3,0,4.4,1.3,4.3,3.7Z" transform="translate(-110.05 -71.81)"/><path class="cls-2" d="M116.55,179.41c2.7,0,3.4-2.7,3.6-3.5H119c-.3,1.5-1.1,2.6-2.4,2.6-2.4,0-2-2.2-1.3-5s1-5,3.5-5c1.4,0,1.6,1.2,1.2,2.4h1c.1-.6.8-3.3-2.1-3.3-3.7,0-4.2,3.7-4.7,5.9s-1.4,5.9,2.3,5.9Z" transform="translate(-110.05 -71.81)"/><polygon class="cls-2" points="16.2 96.11 13.8 107.41 19.1 107.41 19.2 106.61 15 106.61 16 102 19.9 102 20.1 101.2 16.1 101.2 17 96.91 21.2 96.91 21.4 96.11 16.2 96.11"/><path class="cls-2" d="M137.35,173.71c2.2,0,1.4,2.2,1.3,2.7a17,17,0,0,0-.4,2.8h1c.1-.4.1-.9.2-1.3.9-4,.8-4.2-.7-4.6h0c1.6-.3,2-1.3,2.3-2.7.4-2,0-2.7-2.2-2.7h-3.1l-2.4,11.3h1l1.2-5.5h1.8Zm-.8-5h2.1c1.2,0,1.7.3,1.4,1.9-.4,1.9-1.2,2.3-2.7,2.3h-1.6l.8-4.2Z" transform="translate(-110.05 -71.81)"/><polygon class="cls-2" points="35.6 107.41 36.6 107.41 38.8 96.91 41.6 96.91 41.8 96.11 35.3 96.11 35.1 96.91 37.8 96.91 35.6 107.41"/><polygon class="cls-2" points="45.8 96.11 43.4 107.41 44.4 107.41 46.8 96.11 45.8 96.11"/><polygon class="cls-2" points="49.3 107.41 50.3 107.41 51.5 102 55 102 55.2 101.2 51.7 101.2 52.6 96.91 56.3 96.91 56.5 96.11 51.7 96.11 49.3 107.41"/><polygon class="cls-2" points="60.6 96.11 58.2 107.41 59.2 107.41 61.6 96.11 60.6 96.11"/><polygon class="cls-2" points="66.6 96.11 64.2 107.41 69.4 107.41 69.6 106.61 65.4 106.61 66.3 102 70.3 102 70.5 101.2 66.5 101.2 67.4 96.91 71.6 96.91 71.7 96.11 66.6 96.11"/><path class="cls-2" d="M187,168.71h1.3c2.8,0,3,.9,2.3,4.2-1,4.6-1.5,5.4-4.5,5.4h-1.2l2.1-9.6Zm-3.3,10.5h2.6c3.4,0,4.4-1.9,5.2-5.6.8-3.9.8-5.7-2.3-5.7h-3l-2.5,11.3Z" transform="translate(-110.05 -71.81)"/><path class="cls-2" d="M201,179.21h1l1.1-5.3H205c1.9,0,2.9-1,3.4-3.3.6-2.6-1-2.7-1.9-2.7h-3.1l-2.4,11.3Zm3.2-10.5H206c.9,0,1.7.2,1.3,2.1s-1.2,2.3-2.2,2.3h-1.9l1-4.4Z" transform="translate(-110.05 -71.81)"/><path class="cls-2" d="M214,167.91h-1l-1.7,7.9c-.6,2.9.8,3.7,2.5,3.7s3.5-.8,4.1-3.7l1.7-7.9h-1l-1.5,7.1c-.3,1.5-.8,3.6-3.1,3.6s-1.9-2.1-1.5-3.6l1.5-7.1Z" transform="translate(-110.05 -71.81)"/><path class="cls-2" d="M224.25,172.91l.9-4.2h2c.8,0,1.8,0,1.4,1.9-.3,1.3-.9,2.3-2.4,2.3h-1.9Zm.9,6.3c1.9,0,3.1-1.1,3.5-3.2.3-1.4.1-2.4-1.3-2.7h0c1.5-.4,1.9-1.3,2.2-2.7.4-2-.3-2.7-2.1-2.7h-3.2l-2.4,11.3h3.3Zm-1.1-5.4h2c1.7,0,1.7,1.4,1.5,2.4-.4,1.7-1.3,2.2-2.9,2.2H223l1-4.6Z" transform="translate(-110.05 -71.81)"/><polygon class="cls-2" points="127.1 107.41 127.2 106.61 123.5 106.61 125.7 96.11 124.7 96.11 122.3 107.41 127.1 107.41"/><polygon class="cls-2" points="133.6 96.11 131.2 107.41 132.2 107.41 134.6 96.11 133.6 96.11"/><path class="cls-2" d="M250.35,179.41c2.7,0,3.4-2.7,3.6-3.5h-1.1c-.3,1.5-1.1,2.6-2.4,2.6-2.4,0-2-2.2-1.3-5s1-5,3.5-5c1.4,0,1.6,1.2,1.2,2.4h1c.1-.6.8-3.3-2.1-3.3-3.7,0-4.2,3.7-4.7,5.9s-1.4,5.9,2.3,5.9Z" transform="translate(-110.05 -71.81)"/><path class="cls-2" d="M268.75,167.91l-6,11.3h1l1.5-3h4.4l.3,3H271l-1.1-11.3Zm-3,7.5L269,169h0l.6,6.4Z" transform="translate(-110.05 -71.81)"/><path class="cls-2" d="M278.15,179.41c2.7,0,3.4-2.7,3.6-3.5h-1.1c-.3,1.5-1.1,2.6-2.4,2.6-2.4,0-2-2.2-1.3-5s1-5,3.5-5c1.4,0,1.6,1.2,1.2,2.4h1c.1-.6.8-3.3-2.1-3.3-3.7,0-4.2,3.7-4.7,5.9-.3,2.2-1.4,5.9,2.3,5.9Z" transform="translate(-110.05 -71.81)"/><path class="cls-2" d="M288.55,179.41c2.7,0,3.4-2.7,3.6-3.5H291c-.3,1.5-1.1,2.6-2.4,2.6-2.4,0-2-2.2-1.3-5s1-5,3.5-5c1.4,0,1.6,1.2,1.2,2.4h1c.1-.6.8-3.3-2.1-3.3-3.7,0-4.2,3.7-4.7,5.9-.3,2.2-1.4,5.9,2.3,5.9Z" transform="translate(-110.05 -71.81)"/><path class="cls-2" d="M299.25,178.61c-2.4,0-2-2.2-1.3-5s1-5,3.5-5,2,2.2,1.3,5-1.1,5-3.5,5Zm-.2.8c3.7,0,4.2-3.7,4.7-5.9s1.5-5.9-2.2-5.9-4.2,3.7-4.7,5.9-1.5,5.9,2.2,5.9Z" transform="translate(-110.05 -71.81)"/><path class="cls-2" d="M310.55,167.91h-1l-1.7,7.9c-.6,2.9.8,3.7,2.5,3.7s3.5-.8,4.1-3.7l1.7-7.9h-1l-1.5,7.1c-.3,1.5-.8,3.6-3.1,3.6s-1.9-2.1-1.5-3.6l1.5-7.1Z" transform="translate(-110.05 -71.81)"/><polygon class="cls-2" points="209.5 107.41 211.7 97.41 211.7 97.41 214.2 107.41 215.7 107.41 218.1 96.11 217.1 96.11 215 106 215 106 212.5 96.11 211 96.11 208.5 107.41 209.5 107.41"/><polygon class="cls-2" points="222.5 107.41 223.5 107.41 225.7 96.91 228.5 96.91 228.7 96.11 222.1 96.11 222 96.91 224.7 96.91 222.5 107.41"/><path class="cls-2" d="M344.55,167.91l-6,11.3h1l1.5-3h4.4l.3,3h1.1l-1.1-11.3Zm-3,7.5,3.3-6.4h0l.6,6.4Z" transform="translate(-110.05 -71.81)"/><polygon class="cls-2" points="241.8 107.41 243.9 97.41 244 97.41 246.4 107.41 248 107.41 250.4 96.11 249.4 96.11 247.3 106 247.2 106 244.7 96.11 243.2 96.11 240.8 107.41 241.8 107.41"/><polygon class="cls-2" points="254.7 107.41 255.8 107.41 258 96.91 260.7 96.91 260.9 96.11 254.4 96.11 254.2 96.91 257 96.91 254.7 107.41"/><path class="cls-2" d="M380.15,170.81c.3-1.6.2-3.1-2.2-3.1-1.9,0-3.3.8-3.7,2.8-.2,1.1-.3,1.8,1.6,3.2,1.4,1,2.3,1.4,2,3a2.29,2.29,0,0,1-2.4,2c-2,0-1.8-1.3-1.6-2.6h-1c-.6,2.2.2,3.4,2.4,3.4a3.5,3.5,0,0,0,3.7-3c.5-2.2-.9-2.5-2.1-3.5s-1.9-1-1.6-2.7a2.14,2.14,0,0,1,2.4-1.8c1.5,0,1.7.8,1.4,2.2h1.1Z" transform="translate(-110.05 -71.81)"/><path class="cls-2" d="M394,167.91l-6,11.3h1l1.5-3h4.4l.3,3h1.1l-1.1-11.3Zm-3,7.5,3.3-6.4h0l.6,6.4Z" transform="translate(-110.05 -71.81)"/><polygon class="cls-2" points="291.3 107.41 293.5 97.41 293.5 97.41 296 107.41 297.5 107.41 299.9 96.11 298.9 96.11 296.8 106 296.8 106 294.3 96.11 292.8 96.11 290.3 107.41 291.3 107.41"/><path class="cls-2" d="M415.75,168.71H417c2.8,0,3,.9,2.3,4.2-1,4.6-1.5,5.4-4.5,5.4h-1.2l2.1-9.6Zm-3.2,10.5h2.6c3.4,0,4.4-1.9,5.2-5.6.8-3.9.8-5.7-2.3-5.7h-3l-2.5,11.3Z" transform="translate(-110.05 -71.81)"/><path class="cls-2" d="M432.95,179.41c2.7,0,3.4-2.7,3.6-3.5h-1.1c-.3,1.5-1.1,2.6-2.4,2.6-2.4,0-2-2.2-1.3-5s1-5,3.5-5c1.4,0,1.6,1.2,1.2,2.4h1c.1-.6.8-3.3-2.1-3.3-3.7,0-4.2,3.7-4.7,5.9-.3,2.2-1.3,5.9,2.3,5.9Z" transform="translate(-110.05 -71.81)"/><path class="cls-2" d="M443.65,178.61c-2.4,0-2-2.2-1.3-5s1-5,3.5-5,2,2.2,1.3,5-1,5-3.5,5Zm-.2.8c3.7,0,4.2-3.7,4.7-5.9s1.5-5.9-2.2-5.9-4.2,3.7-4.7,5.9-1.5,5.9,2.2,5.9Z" transform="translate(-110.05 -71.81)"/><polygon class="cls-2" points="342.7 107.41 344.8 97.41 344.8 97.41 347.3 107.41 348.8 107.41 351.2 96.11 350.2 96.11 348.1 106 348.1 106 345.6 96.11 344.1 96.11 341.7 107.41 342.7 107.41"/><path class="cls-2" d="M471.45,170.81c.3-1.6.2-3.1-2.2-3.1-1.9,0-3.3.8-3.7,2.8-.2,1.1-.3,1.8,1.6,3.2,1.4,1,2.3,1.4,2,3a2.29,2.29,0,0,1-2.4,2c-2,0-1.8-1.3-1.6-2.6h-1c-.6,2.2.2,3.4,2.4,3.4a3.5,3.5,0,0,0,3.7-3c.5-2.2-.9-2.5-2.1-3.5s-1.9-1-1.6-2.7a2.14,2.14,0,0,1,2.4-1.8c1.5,0,1.7.8,1.4,2.2h1.1Z" transform="translate(-110.05 -71.81)"/><path class="cls-2" d="M477.55,167.91h-1l-1.7,7.9c-.6,2.9.8,3.7,2.5,3.7s3.5-.8,4.1-3.7l1.7-7.9h-1l-1.5,7.1c-.3,1.5-.8,3.6-3.1,3.6s-1.9-2.1-1.5-3.6l1.5-7.1Z" transform="translate(-110.05 -71.81)"/><polygon class="cls-2" points="380.2 107.41 380.4 106.61 376.6 106.61 378.8 96.11 377.8 96.11 375.4 107.41 380.2 107.41"/><polygon class="cls-2" points="384.8 107.41 385.8 107.41 388 96.91 390.8 96.91 391 96.11 384.4 96.11 384.3 96.91 387 96.91 384.8 107.41"/><path class="cls-2" d="M506.85,167.91l-6,11.3h1l1.5-3h4.4l.3,3h1.1l-1.1-11.3Zm-3,7.5,3.3-6.4h0l.6,6.4Z" transform="translate(-110.05 -71.81)"/><polygon class="cls-2" points="404.1 107.41 406.2 97.41 406.3 97.41 408.7 107.41 410.3 107.41 412.7 96.11 411.7 96.11 409.6 106 409.5 106 407 96.11 405.5 96.11 403.1 107.41 404.1 107.41"/><polygon class="cls-2" points="417 107.41 418 107.41 420.3 96.91 423 96.91 423.2 96.11 416.7 96.11 416.5 96.91 419.3 96.91 417 107.41"/><path class="cls-2" d="M542.35,170.81c.3-1.6.2-3.1-2.2-3.1-1.9,0-3.3.8-3.7,2.8-.2,1.1-.3,1.8,1.6,3.2,1.4,1,2.3,1.4,2,3a2.29,2.29,0,0,1-2.4,2c-2,0-1.8-1.3-1.6-2.6h-1c-.6,2.2.2,3.4,2.4,3.4a3.5,3.5,0,0,0,3.7-3c.5-2.2-.9-2.5-2.1-3.5s-1.9-1-1.6-2.7a2.14,2.14,0,0,1,2.4-1.8c1.5,0,1.7.8,1.4,2.2h1.1Z" transform="translate(-110.05 -71.81)"/><line class="cls-3" y1="86.6" x2="433.3" y2="86.6"/></svg>