<!-- Generator: Adobe Illustrator 21.0.0, SVG Export Plug-In  -->
<svg version="1.1"
	 xmlns="http://www.w3.org/2000/svg" xmlns:xlink="http://www.w3.org/1999/xlink" xmlns:a="http://ns.adobe.com/AdobeSVGViewerExtensions/3.0/"
	 x="0px" y="0px" width="434.5px" height="107.5px" viewBox="0 0 434.5 107.5" style="enable-background:new 0 0 434.5 107.5;"
	 xml:space="preserve">
<style type="text/css">
	.st0{fill:#FFFFFF;}
	.st1{fill-rule:evenodd;clip-rule:evenodd;fill:#FFFFFF;}
	.st2{fill:none;stroke:#FFFFFF;stroke-width:1.3209;stroke-miterlimit:3.8637;}
</style>
<defs>
</defs>
<path class="st0" d="M51,36.7c-0.5-10.6-7.3-13.2-15.3-14.1l-14.5-1.8c-4.6-0.6-10.5-2.5-10-6.7c1-7.2,9.4-8.2,16.7-8.2
	c9.1-0.1,16.5,2.5,18.4,4l2.3-8.1c-1.1,0.1-1.8,0.3-2.9,0.1c-3.6-0.6-11-2.1-18.1-2C15.7,0.2,4,3.2,3.3,14.3
	c-0.8,10.7,9.8,12.3,18.6,13.4l9.3,1.1c5.5,0.6,11.2,1.9,11.5,8.3c0.3,6.5-7.3,10.2-15.3,10.2c-9.6-0.1-19.7-3.9-24.3-5.5l1.8,9.6
	c0.9-0.1,1.4-0.1,2.3-0.3c2.1-0.2,11.6,2.1,18.9,2.1C38.8,53.3,51.5,48.3,51,36.7L51,36.7z"/>
<path class="st1" d="M101.3,52.7c-1.3-1.1-1.9-1.9-2.7-3.4c-1.1-2.1-1.5-3.6-1.5-6.1V28.9c0-10-6.5-13.8-17.1-13.8
	c-6.1-0.1-9.6,1.5-15.9,1.7c-1.3,0-2.2-0.3-3.3-0.8l-3.1,9.5c7.5-3.5,12.8-4.4,21.2-4.7c7.1-0.2,12,2.2,11,9.1L86.1,30
	C73.1,30.5,55.2,30.4,55,42.7C54.9,51,63.9,54.2,72,54c3.6-0.1,11.2,0.6,16.9-2.9l2.9-1.7c0.3,0.9,0.6,1.5,1.3,2.1
	c1,0.9,1.4,1.2,3.2,1.2H101.3L101.3,52.7z M90,39.3c0.1,7.1-8.4,9.6-15.4,9.5c-5.4-0.1-13-1.5-12.6-6c0.7-6.8,13.3-7.3,22.6-7.7
	l5.4-0.3V39.3L90,39.3z"/>
<path class="st0" d="M119.8,52.7c-1-1.1-1.6-1.8-2.2-3.2c-0.8-1.8-1.1-3.1-1.1-5.1V4.1c0-0.8,0-1.5,0.4-2.2c0.2-0.5,0.4-0.8,0.7-1.2
	h-12c1.1,0.8,1.8,1.3,2.4,2.5c0.7,1.3,1.3,2.8,1.3,4.7v37.3c0,1.9-0.4,3-1.3,4.8c-0.8,1.2-1.3,1.9-2.5,2.8H119.8L119.8,52.7z"/>
<path class="st0" d="M161.6,15.5c-0.8,0.7-1.5,1.1-2.5,1.4c-1,0.4-1.7,0.5-2.9,0.5h-14.5V5.2c0-0.5,0-0.9,0.3-1.3
	c0.1-0.3,0.3-0.6,0.5-0.8h-8.4c0.3,0.3,0.4,0.4,0.6,0.8c0.3,0.4,0.4,0.8,0.4,1.4V13c0,4.1-2.3,4.8-5,4.9c-1.6,0-2.7-0.5-3.7-1.6
	l-2.5,8.7c0.5-0.3,0.8-0.6,1.3-0.9c0.8-0.3,1.4-0.6,2.3-0.6h7.3v14.2c0,8.4,3.4,16.1,15,15.7c4.1-0.2,6.2-0.8,9.6-1
	c0.7,0,1,0.2,1.6,0.3V45c-3.4,1.5-5.6,2.8-9.4,2.7c-7.7-0.3-9.6-4.7-9.6-10V23.2h13.6c0.6,0,1.1,0.1,1.8,0.4
	c0.6,0.3,0.9,0.5,1.3,0.9L161.6,15.5L161.6,15.5z"/>
<path class="st0" d="M241.6,52.7c-0.7-0.8-1.1-1.4-1.6-2.3c-1-2-1-3.4-1-5.6V29.4c0-8.8-7.5-14.2-17.9-13.9
	c-6.5,0.3-11,1.6-15.9,5.8c-3.4-3.9-5.8-5.8-14.8-6c-6.3-0.1-10.3,1.7-15.2,5.6v-4.4c-0.3,0.2-0.4,0.3-0.6,0.4
	c-0.4,0.2-0.7,0.2-1.1,0.2h-8.1c1.1,0.9,1.7,1.5,2.4,2.7c1,1.8,1.4,2.6,1.4,4.6v19.9c0,2.1-0.4,3.6-1.4,5.3c-0.8,1.2-1.3,2-2.4,3h14
	c-0.9-0.8-1.4-1.4-2-2.4c-1-1.8-1.3-3.1-1.3-5.1V32.2c0-7.2,7.4-11.1,14.6-11.4c5.6-0.3,9.9,3.2,9.9,8.1v14.5c0,2-0.2,3.4-1,5.3
	c-0.6,1.6-1.3,2.6-2.5,4h13.6c-1.1-0.8-1.6-1.5-2.3-2.7c-0.8-1.5-1-2.7-1-4.4V30.8c0-6.7,7.3-9.7,14-9.8c7.2-0.1,10.8,3.9,10.8,9.4
	v14.8c0,1.7-0.3,2.7-1,4.2c-0.6,1.4-1.1,2.2-2.1,3.3H241.6L241.6,52.7z"/>
<path class="st1" d="M292.3,52.7c-1.3-1.1-1.9-1.9-2.7-3.4c-1.1-2.1-1.5-3.6-1.5-6.1V28.9c0-10-6.5-13.8-17.1-13.8
	c-6.2-0.1-9.6,1.5-15.9,1.7c-1.3,0-2.2-0.3-3.3-0.8l-3.1,9.5c7.5-3.5,12.8-4.4,21.2-4.7c7.1-0.2,12,2.2,11,9.1l-3.7,0.1
	c-13.1,0.5-30.9,0.4-31.1,12.7c-0.1,8.3,8.9,11.5,17.1,11.3c3.6-0.1,11.2,0.6,16.9-2.9l2.9-1.7c0.3,0.9,0.6,1.5,1.3,2.1
	c1,0.9,1.4,1.2,3.2,1.2H292.3L292.3,52.7z M281.1,39.3c0.1,7.1-8.4,9.6-15.4,9.5c-5.4-0.1-13-1.5-12.6-6c0.7-6.8,13.3-7.3,22.6-7.7
	l5.4-0.3V39.3L281.1,39.3z"/>
<path class="st0" d="M331.8,16.7c-3.4-0.7-6.6-1.3-11.4-1.3c-8.6-0.1-12.1,4.4-14.5,6.8v-5.6c-0.3,0.2-0.4,0.3-0.6,0.4
	c-0.4,0.2-0.7,0.2-1.1,0.2h-7.9c1.1,0.9,1.7,1.5,2.4,2.7c1,1.8,1.4,2.6,1.4,4.6v19.9c0,2.1-0.1,3.6-0.7,5.3c-0.6,1.3-1.3,2-2.4,3
	h13.3c-0.9-0.8-1.4-1.4-2-2.4c-1-1.8-1.3-3.1-1.3-5.1v-10c0-7.6,5.6-14.2,13.6-14.1c5.6,0.1,8.3,2.5,9.7,2.9L331.8,16.7L331.8,16.7z
	"/>
<path class="st0" d="M376.9,41.3c-0.1-7.2-5.9-9.3-11.7-9.6L352.9,31c-3.7-0.1-9.4-0.6-8.7-4.2c1.1-5.6,7.3-5.6,12.7-5.9
	c1.9-0.1,10.8,0.1,16.2,3.6l2.7-7.5c-1.1,0.1-1.8,0.3-2.9,0.2c-3.4-0.1-7.1-1.6-15.9-1.6c-9.1,0-20.2,2.8-20.2,12.2
	c0,6.1,7,8.8,13.2,9l10.9,0.4c3.8,0.1,8.9,0.8,8.6,4.9c-0.4,5.7-7.4,6.3-12.2,6.5c-8.6,0.3-12.7-2.9-21.4-5.5l3,10.1
	c1.1-0.2,1.9-0.6,3-0.6c4.6,0.1,9.3,1.3,15.2,1.3C366.8,53.9,377,50.2,376.9,41.3L376.9,41.3z"/>
<path class="st0" d="M429.5,52.7c-0.8-1-1.5-1.5-2.2-2.6c-1-1.7-1.2-3-1.2-4.9V28.3c0-8.6-7.4-13.7-17.4-13.4
	c-7,0.2-12.7,2.5-17.1,6.3V6.5c0-1.3,0.2-2.1,0.6-3.3c0.4-1.1,0.8-1.7,1.5-2.5h-11.7c0.8,1,1.3,1.6,1.7,2.8c0.4,1.2,0.6,2,0.6,3.3
	V45c0,1.6-0.1,2.7-0.8,4.1c-0.6,1.5-1.3,2.5-2.6,3.6h13.9c-1-0.9-1.6-1.5-2.2-2.7c-0.8-1.7-1.3-4-1.3-6.6v-7.9
	c0-7.7,5.4-14.6,16.7-14.6c6.7-0.1,10.8,3,10.8,8.2v16.3c0,1.6-0.2,2.6-0.8,4.1c-0.6,1.4-1.1,2.2-2.2,3.3H429.5L429.5,52.7z"/>
<path class="st0" d="M113.2,72.5c-0.1-2.9-2-3.6-4.1-3.8l-3.9-0.5c-1.2-0.2-2.8-0.7-2.7-1.8c0.3-2,2.6-2.2,4.5-2.2
	c2.5,0,4.5,0.7,5,1.1l0.6-2.2c-0.3,0-0.5,0.1-0.8,0c-1-0.2-3-0.6-4.9-0.5c-3.2,0.1-6.4,0.9-6.6,3.9c-0.2,2.9,2.7,3.3,5,3.6l2.5,0.3
	c1.5,0.2,3,0.5,3.1,2.2c0.1,1.7-2,2.8-4.1,2.8c-2.6,0-5.3-1.1-6.6-1.5l0.5,2.6c0.2,0,0.4,0,0.6-0.1c0.6-0.1,3.1,0.6,5.1,0.6
	C109.9,77,113.3,75.6,113.2,72.5L113.2,72.5z"/>
<path class="st1" d="M126.8,76.8c-0.3-0.3-0.5-0.5-0.7-0.9c-0.3-0.6-0.4-1-0.4-1.6v-3.9c0-2.7-1.7-3.7-4.6-3.7
	c-1.7,0-2.6,0.4-4.3,0.5c-0.3,0-0.6-0.1-0.9-0.2l-0.8,2.6c2-0.9,3.5-1.2,5.7-1.3c1.9-0.1,3.2,0.6,3,2.5l-1,0
	c-3.5,0.1-8.4,0.1-8.4,3.4c0,2.2,2.4,3.1,4.6,3.1c1,0,3,0.2,4.6-0.8l0.8-0.5c0.1,0.2,0.2,0.4,0.4,0.6c0.3,0.2,0.4,0.3,0.9,0.3H126.8
	L126.8,76.8z M123.7,73.2c0,1.9-2.3,2.6-4.2,2.6c-1.5,0-3.5-0.4-3.4-1.6c0.2-1.9,3.6-2,6.1-2.1l1.5-0.1V73.2L123.7,73.2z"/>
<path class="st1" d="M131.8,76.8c-0.3-0.3-0.4-0.5-0.6-0.9c-0.2-0.5-0.3-0.8-0.3-1.4V63.7c0-0.2,0-0.4,0.1-0.6
	c0.1-0.1,0.1-0.2,0.2-0.3h-3.2c0.3,0.2,0.5,0.4,0.7,0.7c0.2,0.3,0.3,0.8,0.3,1.3v10.1c0,0.5-0.1,0.8-0.4,1.3
	c-0.2,0.3-0.4,0.5-0.7,0.8H131.8L131.8,76.8z"/>
<path class="st0" d="M143.1,66.8c-0.2,0.2-0.4,0.3-0.7,0.4c-0.3,0.1-0.5,0.1-0.8,0.1h-3.9V64c0-0.1,0-0.2,0.1-0.4
	c0-0.1,0.1-0.2,0.1-0.2h-2.3c0.1,0.1,0.1,0.1,0.2,0.2c0.1,0.1,0.1,0.2,0.1,0.4v2.1c0,1.1-0.6,1.3-1.4,1.3c-0.4,0-0.7-0.1-1-0.4
	l-0.7,2.3c0.1-0.1,0.2-0.2,0.4-0.2c0.2-0.1,0.4-0.2,0.6-0.2h2v3.8c0,2.3,0.9,4.4,4,4.3c1.1-0.1,1.7-0.2,2.6-0.3
	c0.2,0,0.3,0.1,0.4,0.1v-2.1c-0.9,0.4-1.5,0.8-2.5,0.7c-2.1-0.1-2.6-1.3-2.6-2.7v-3.9h3.7c0.2,0,0.3,0,0.5,0.1
	c0.2,0.1,0.2,0.1,0.4,0.2L143.1,66.8L143.1,66.8z"/>
<path class="st1" d="M164.7,76.8c-0.2-0.2-0.3-0.4-0.4-0.6c-0.3-0.5-0.3-0.9-0.3-1.5v-4.1c0-2.4-2-3.8-4.9-3.8
	c-1.8,0.1-3,0.4-4.3,1.6c-0.9-1-1.6-1.6-4-1.6c-1.7,0-2.8,0.5-4.1,1.5V67c-0.1,0.1-0.1,0.1-0.2,0.1c-0.1,0.1-0.2,0.1-0.3,0.1h-2.2
	c0.3,0.2,0.5,0.4,0.7,0.7c0.3,0.5,0.4,0.7,0.4,1.3v5.4c0,0.6-0.1,1-0.4,1.4c-0.2,0.3-0.4,0.5-0.7,0.8h3.8c-0.2-0.2-0.4-0.4-0.5-0.7
	c-0.3-0.5-0.4-0.8-0.4-1.4v-3.5c0-2,2-3,4-3.1c1.5-0.1,2.7,0.9,2.7,2.2v3.9c0,0.5-0.1,0.9-0.3,1.4c-0.2,0.4-0.3,0.7-0.7,1.1h3.7
	c-0.3-0.2-0.4-0.4-0.6-0.7c-0.2-0.4-0.3-0.7-0.3-1.2v-4c0-1.8,2-2.6,3.8-2.6c1.9,0,2.9,1,2.9,2.5v4c0,0.5-0.1,0.7-0.3,1.1
	c-0.2,0.4-0.3,0.6-0.6,0.9H164.7L164.7,76.8z"/>
<path class="st1" d="M178.4,76.8c-0.3-0.3-0.5-0.5-0.7-0.9c-0.3-0.6-0.4-1-0.4-1.6v-3.9c0-2.7-1.7-3.7-4.6-3.7
	c-1.7,0-2.6,0.4-4.3,0.5c-0.3,0-0.6-0.1-0.9-0.2l-0.8,2.6c2-0.9,3.5-1.2,5.7-1.3c1.9-0.1,3.2,0.6,3,2.5l-1,0
	c-3.5,0.1-8.4,0.1-8.4,3.4c0,2.2,2.4,3.1,4.6,3.1c1,0,3,0.2,4.6-0.8l0.8-0.5c0.1,0.2,0.2,0.4,0.4,0.6c0.3,0.2,0.4,0.3,0.9,0.3H178.4
	L178.4,76.8z M175.4,73.2c0,1.9-2.3,2.6-4.2,2.6c-1.5,0-3.5-0.4-3.4-1.6c0.2-1.9,3.6-2,6.1-2.1l1.5-0.1V73.2L175.4,73.2z"/>
<path class="st1" d="M189.1,67.1c-0.9-0.2-1.8-0.3-3.1-0.4c-2.3,0-3.3,1.2-3.9,1.8V67c-0.1,0.1-0.1,0.1-0.2,0.1
	c-0.1,0.1-0.2,0.1-0.3,0.1h-2.1c0.3,0.2,0.5,0.4,0.7,0.7c0.3,0.5,0.4,0.7,0.4,1.3v5.4c0,0.6,0,1-0.2,1.4c-0.2,0.4-0.4,0.5-0.7,0.8
	h3.6c-0.2-0.2-0.4-0.4-0.5-0.7c-0.3-0.5-0.3-0.8-0.3-1.4v-2.7c0-2.1,1.5-3.8,3.7-3.8c1.5,0,2.2,0.7,2.6,0.8L189.1,67.1L189.1,67.1z"
	/>
<path class="st0" d="M201.3,73.7c0-1.9-1.6-2.5-3.2-2.6l-3.3-0.2c-1,0-2.5-0.2-2.3-1.1c0.3-1.5,2-1.5,3.4-1.6c0.5,0,2.9,0,4.4,1
	l0.7-2c-0.3,0-0.5,0.1-0.8,0.1c-0.9,0-1.9-0.4-4.3-0.4c-2.5,0-5.5,0.8-5.5,3.3c0,1.7,1.9,2.4,3.6,2.4l2.9,0.1c1,0,2.4,0.2,2.3,1.3
	c-0.1,1.5-2,1.7-3.3,1.7c-2.3,0.1-3.4-0.8-5.8-1.5l0.8,2.7c0.3-0.1,0.5-0.2,0.8-0.2c1.2,0,2.5,0.3,4.1,0.3
	C198.6,77.1,201.3,76.1,201.3,73.7L201.3,73.7z"/>
<path class="st1" d="M215.5,76.8c-0.2-0.3-0.4-0.4-0.6-0.7c-0.3-0.5-0.3-0.8-0.3-1.3v-4.6c0-2.3-2-3.7-4.7-3.6
	c-1.9,0.1-3.4,0.7-4.6,1.7v-4c0-0.3,0.1-0.6,0.2-0.9c0.1-0.3,0.2-0.5,0.4-0.7h-3.2c0.2,0.3,0.3,0.4,0.5,0.8c0.1,0.3,0.2,0.5,0.2,0.9
	v10.4c0,0.4,0,0.7-0.2,1.1c-0.2,0.4-0.4,0.7-0.7,1h3.8c-0.3-0.2-0.4-0.4-0.6-0.7c-0.2-0.5-0.3-1.1-0.3-1.8v-2.1c0-2.1,1.5-3.9,4.5-4
	c1.8,0,2.9,0.8,2.9,2.2v4.4c0,0.4-0.1,0.7-0.2,1.1c-0.2,0.4-0.3,0.6-0.6,0.9H215.5L215.5,76.8z"/>
<path class="st0" d="M219.5,75.9c0-0.9-0.6-1.6-1.5-1.6c-0.8,0-1.5,0.7-1.4,1.4c0,1,0.7,0.9,0.6,1.5c0,0.6-0.4,1-0.9,1.2l1.1,1
	l0.6-0.6C218.9,77.8,219.5,77,219.5,75.9L219.5,75.9z"/>
<path class="st0" d="M240.1,63.1c-0.2,0-0.4,0.1-0.6,0c-1-0.1-2.5-0.6-4.9-0.6c-5-0.1-8.5,3-8.4,7.4c0.1,4.1,2.5,7,7.9,7.1
	c2.7,0.1,3.3-0.6,5.3-0.7c0.3,0,0.4,0,0.7,0v-2.5c-2.1,0.9-3.5,1.4-5.8,1.4c-3.8,0.1-6-2.3-6-5.4c0-3.4,3-5.8,6.6-5.8
	c2,0,3.2,0.6,4.7,1.1L240.1,63.1L240.1,63.1z"/>
<path class="st1" d="M245,76.8c-0.3-0.3-0.4-0.5-0.6-0.9c-0.2-0.5-0.3-0.8-0.3-1.4V63.7c0-0.2,0-0.4,0.1-0.6
	c0.1-0.1,0.1-0.2,0.2-0.3h-3.2c0.3,0.2,0.5,0.4,0.7,0.7c0.2,0.3,0.3,0.8,0.3,1.3v10.1c0,0.5-0.1,0.8-0.4,1.3
	c-0.2,0.3-0.4,0.5-0.7,0.8H245L245,76.8z"/>
<path class="st1" d="M258.5,73.1c0.4-3-1.2-6.4-6.1-6.3c-4.2,0.1-6.1,2.2-6.2,5.4c0,3.8,3.3,5.1,6.5,5c2.4,0,3-0.5,4.5-0.5
	c0.3,0,0.4,0.1,0.6,0.1v-2.4c-1.7,0.8-3.1,1.2-5.1,1.2c-2.4,0-4-0.7-4.4-2.8l9.5,0c0.2,0,0.3,0,0.5,0.1
	C258.3,72.9,258.4,73,258.5,73.1L258.5,73.1z M256.5,71.3h-8.3c0.2-2.1,2.2-3.1,4.2-3.1C254.4,68.2,256.3,69.2,256.5,71.3
	L256.5,71.3z"/>
<path class="st1" d="M272.1,76.8c-0.3-0.3-0.5-0.5-0.7-0.9c-0.3-0.6-0.4-1-0.4-1.6v-3.9c0-2.7-1.8-3.7-4.6-3.7
	c-1.7,0-2.6,0.4-4.3,0.5c-0.3,0-0.6-0.1-0.9-0.2l-0.8,2.6c2-0.9,3.5-1.2,5.7-1.3c1.9-0.1,3.2,0.6,3,2.5l-1,0
	c-3.5,0.1-8.4,0.1-8.4,3.4c0,2.2,2.4,3.1,4.6,3.1c1,0,3,0.2,4.6-0.8l0.8-0.5c0.1,0.2,0.2,0.4,0.4,0.6c0.3,0.2,0.4,0.3,0.9,0.3H272.1
	L272.1,76.8z M269.1,73.2c0,1.9-2.3,2.6-4.2,2.6c-1.5,0-3.5-0.4-3.4-1.6c0.2-1.9,3.6-2,6.1-2.1l1.5-0.1V73.2L269.1,73.2z"/>
<path class="st0" d="M287.2,67.2h-3.4c0.2,0.3,0.3,0.3,0.3,0.8c0,0.9-0.5,1.5-1,2.4l-2.7,4.7l-3.2-5.8c-0.2-0.4-0.4-0.8-0.4-1.1
	c0-0.4,0.1-0.6,0.2-0.9h-3.7c0.5,0.6,0.9,1,1.3,1.6c0.4,0.8,0.8,1.2,1.2,2l3,5.2c0.1,0.2,0.2,0.3,0.2,0.5c0,0.1-0.1,0.2-0.1,0.3h2.8
	c0-0.1-0.1-0.2-0.1-0.2c0-0.2,0-0.3,0.1-0.5l3.2-5.7c0.5-0.8,0.9-1.4,1.3-2C286.5,67.9,286.8,67.7,287.2,67.2L287.2,67.2z"/>
<path class="st1" d="M300.6,73.1c0.4-3-1.2-6.4-6.1-6.3c-4.2,0.1-6.1,2.2-6.2,5.4c0,3.8,3.3,5.1,6.5,5c2.4,0,3-0.5,4.5-0.5
	c0.3,0,0.4,0.1,0.6,0.1v-2.4c-1.8,0.8-3.1,1.2-5.1,1.2c-2.4,0-4-0.7-4.4-2.8l9.5,0c0.2,0,0.3,0,0.5,0.1
	C300.5,72.9,300.6,73,300.6,73.1L300.6,73.1z M298.6,71.3h-8.3c0.2-2.1,2.2-3.1,4.2-3.1C296.5,68.2,298.5,69.2,298.6,71.3
	L298.6,71.3z"/>
<path class="st1" d="M305.6,76.8c-0.3-0.3-0.4-0.5-0.6-0.9c-0.2-0.5-0.3-0.8-0.3-1.4V63.7c0-0.2,0-0.4,0.1-0.6
	c0.1-0.1,0.1-0.2,0.2-0.3h-3.2c0.3,0.2,0.5,0.4,0.7,0.7c0.2,0.3,0.3,0.8,0.3,1.3v10.1c0,0.5-0.1,0.8-0.4,1.3
	c-0.2,0.3-0.4,0.5-0.7,0.8H305.6L305.6,76.8z"/>
<path class="st1" d="M319.2,76.8c-0.3-0.3-0.5-0.5-0.7-0.9c-0.3-0.6-0.4-1-0.4-1.6v-3.9c0-2.7-1.8-3.7-4.6-3.7
	c-1.7,0-2.6,0.4-4.3,0.5c-0.3,0-0.6-0.1-0.9-0.2l-0.8,2.6c2-0.9,3.5-1.2,5.7-1.3c1.9-0.1,3.2,0.6,3,2.5l-1,0
	c-3.5,0.1-8.4,0.1-8.4,3.4c0,2.2,2.4,3.1,4.6,3.1c1,0,3,0.2,4.6-0.8l0.8-0.5c0.1,0.2,0.2,0.4,0.4,0.6c0.3,0.2,0.4,0.3,0.9,0.3H319.2
	L319.2,76.8z M316.2,73.2c0,1.9-2.3,2.6-4.2,2.6c-1.5,0-3.5-0.4-3.4-1.6c0.2-1.9,3.6-2,6.1-2.1l1.5-0.1V73.2L316.2,73.2z"/>
<path class="st1" d="M333.2,76.8c-0.2-0.2-0.3-0.4-0.4-0.6c-0.3-0.5-0.3-0.9-0.3-1.5v-4.1c0-3-2.6-3.9-5-3.9c-1.7,0-3.2,0.6-4.6,1.7
	V67c-0.1,0.1-0.1,0.1-0.2,0.1c-0.1,0.1-0.2,0.1-0.3,0.1h-2.2c0.3,0.2,0.5,0.4,0.7,0.7c0.3,0.5,0.4,0.7,0.4,1.3v5.4
	c0,0.6-0.1,1-0.4,1.4c-0.2,0.3-0.3,0.5-0.7,0.8h3.8c-0.2-0.2-0.4-0.4-0.5-0.7c-0.3-0.5-0.3-0.8-0.3-1.4v-3.5c0-2,2.1-2.9,3.9-3.1
	c1.5-0.2,3.5,0.5,3.5,2.6v4c0,0.5-0.1,0.7-0.3,1.1c-0.2,0.4-0.3,0.6-0.6,0.9H333.2L333.2,76.8z"/>
<path class="st1" d="M346.9,76.8c-0.3-0.3-0.3-0.4-0.5-0.8c-0.2-0.5-0.3-0.8-0.3-1.4V63.6c0-0.2,0-0.3,0.1-0.5
	c0.1-0.2,0.2-0.2,0.3-0.3h-3.4c0.3,0.3,0.5,0.5,0.7,1c0.3,0.6,0.3,1,0.3,1.6v2.6c-1.4-1-2.8-1.2-4.3-1.2c-3.5,0-5.8,2.3-5.7,5.1
	c0,3.5,2.3,5.3,5.9,5.3c1.8,0,3.1-0.5,4.4-1.5c0,0.3,0,0.6,0.3,0.9c0.3,0.3,0.6,0.3,0.9,0.3H346.9L346.9,76.8z M344.3,71.9
	c-0.1,2.1-1.3,3.7-4.1,3.7c-2.6,0-4.3-1.6-4.1-3.8c0.1-1.8,1.3-3.5,3.9-3.6C342.3,68.2,344.4,69.5,344.3,71.9L344.3,71.9z"/>
<path class="st1" d="M370.7,76.9l-0.6-1.1c-0.4-0.8-0.7-1.3-1.3-2.1c-0.5-0.6-1-1-1.5-1.4l0.6-1.3c0.2-0.4,0.4-0.7,0.9-0.8
	c0.6-0.2,1-0.1,1.4-0.1c-0.1-0.3-0.2-0.5-0.2-0.8c0-0.3,0.1-0.4,0.2-0.7H366c0.2,0.3,0.4,0.6,0.4,1c0,0.5-0.3,1.4-0.5,1.8l-6.4-2.8
	c-1-0.5-2-0.9-2.1-2c-0.3-1.7,2-2.3,4-2.2c1.9,0,3.2,0.5,4.8,1.2v-2.5c-0.3,0.1-0.6,0.2-0.9,0.2c-1.7-0.2-2.3-0.5-4-0.4
	c-3.2,0-6.2,1.1-5.9,3.8c0.1,1,0.5,1.5,1.1,2.3c-1.6,0.8-2.6,1.9-2.6,3.7c-0.1,3,2.8,4.9,6,4.8c3,0,5.1-1.2,6.8-3.5l0.6,0.6
	c0.6,0.5,1,1.4,1,1.8c0,0.3-0.1,0.4-0.3,0.7H370.7L370.7,76.9z M365.2,72.9c-0.9,2.1-3.7,3-5.1,3c-2.1-0.1-4.2-1.2-4.2-3.4
	c0-1.3,0.9-2.2,2.1-2.7c1.5,0.6,2.3,0.9,3.8,1.5C363,72,363.8,72.3,365.2,72.9L365.2,72.9z"/>
<path class="st0" d="M392.9,68.5h-7.1c-0.2,0-0.4,0-0.5,0.2c-0.2,0.1-0.2,0.2-0.3,0.4l-0.6,1.3c0.2-0.1,0.4-0.2,0.6-0.2
	c0.2-0.1,0.4-0.1,0.6-0.1h4.9v2.4c0,2.2-2.6,3-4.9,3c-3.2,0.1-6.2-1.6-6.3-5.6c0-3.3,2.5-5.6,6.3-5.6c2.2,0,4.3,0.6,5.6,1.3l0.6-2.2
	c-0.3,0-0.5,0-0.8,0c-0.4,0-3.2-0.8-5.4-0.7c-4.3,0.1-8.3,1.9-8.3,7.1c0,4.2,3.1,7.2,8.2,7.1c3.5,0,4.8-1.1,5.9-1
	c0.5,0,0.9,0.2,1.1,0.5v-7.2c0-0.2,0.1-0.3,0.1-0.4C392.8,68.7,392.9,68.6,392.9,68.5L392.9,68.5z"/>
<path class="st0" d="M406.9,76.8c-0.2-0.3-0.4-0.4-0.5-0.7c-0.3-0.5-0.4-0.8-0.4-1.4v-6.2c0-0.2-0.1,0,0-0.4
	c0.1-0.4,0.1-0.5,0.2-0.8h-2.9c0.3,0.2,0.4,0.4,0.5,0.7c0.3,0.5,0.3,0.9,0.3,1.4v3.6c0,1.9-2,2.7-3.9,2.8c-1.5,0.1-3.6-0.5-3.6-2.6
	v-5.2c0-0.1,0-0.2,0.1-0.4c0-0.1,0.1-0.2,0.1-0.4h-3c0.3,0.2,0.5,0.4,0.7,0.7c0.3,0.5,0.3,0.9,0.3,1.5v3.8c0,3,2.6,4.1,5,4
	c1.7,0,3.2-0.5,4.6-1.6c0.2,0.5,0.2,0.6,0.2,0.6c0.3,0.5,0.5,0.5,0.9,0.5H406.9L406.9,76.8z"/>
<path class="st1" d="M420.8,76.8c-0.2-0.2-0.3-0.4-0.4-0.6c-0.3-0.5-0.3-0.9-0.3-1.5v-4.1c0-3-2.6-3.9-5-3.9c-1.7,0-3.2,0.6-4.6,1.7
	V67c-0.1,0.1-0.1,0.1-0.2,0.1c-0.1,0.1-0.2,0.1-0.3,0.1h-2.2c0.3,0.2,0.5,0.4,0.7,0.7c0.3,0.5,0.4,0.7,0.4,1.3v5.4
	c0,0.6-0.1,1-0.4,1.4c-0.2,0.3-0.3,0.5-0.7,0.8h3.8c-0.2-0.2-0.4-0.4-0.5-0.7c-0.3-0.5-0.3-0.8-0.3-1.4v-3.5c0-2,2.1-2.9,3.9-3.1
	c1.5-0.2,3.5,0.5,3.5,2.6v4c0,0.5-0.1,0.7-0.3,1.1c-0.2,0.4-0.3,0.6-0.6,0.9H420.8L420.8,76.8z"/>
<path class="st1" d="M434.5,76.8c-0.3-0.3-0.3-0.4-0.5-0.8c-0.2-0.5-0.3-0.8-0.3-1.4V63.6c0-0.2,0-0.3,0.1-0.5
	c0.1-0.2,0.2-0.2,0.3-0.3h-3.4c0.3,0.3,0.5,0.5,0.7,1c0.3,0.6,0.3,1,0.3,1.6v2.6c-1.4-1-2.8-1.2-4.3-1.2c-3.5,0-5.8,2.3-5.7,5.1
	c0,3.5,2.3,5.3,5.9,5.3c1.8,0,3.1-0.5,4.4-1.5c0,0.3,0,0.6,0.3,0.9c0.3,0.3,0.6,0.3,0.9,0.3H434.5L434.5,76.8z M431.9,71.9
	c-0.1,2.1-1.3,3.7-4.1,3.7c-2.6,0-4.3-1.6-4.1-3.8c0.1-1.8,1.3-3.5,3.9-3.6C429.9,68.2,432,69.5,431.9,71.9L431.9,71.9z"/>
<path class="st1" d="M6.5,107.5c2.7,0,3.4-2.7,3.6-3.5H9c-0.3,1.5-1.1,2.6-2.4,2.6c-2.4,0-2-2.2-1.3-5c0.6-2.9,1-5,3.5-5
	c1.4,0,1.6,1.2,1.2,2.4h1c0.1-0.6,0.8-3.3-2.1-3.3c-3.7,0-4.2,3.7-4.7,5.9C3.8,103.8,2.8,107.5,6.5,107.5L6.5,107.5z"/>
<polygon class="st0" points="16.2,96 13.8,107.3 19.1,107.3 19.2,106.5 15,106.5 16,101.9 19.9,101.9 20.1,101.1 16.1,101.1 
	17,96.8 21.2,96.8 21.4,96 16.2,96 "/>
<path class="st1" d="M27.3,101.8c2.2,0,1.4,2.2,1.3,2.7c-0.1,0.6-0.5,2.5-0.4,2.8h1c0.1-0.4,0.1-0.9,0.2-1.3c0.9-4,0.8-4.2-0.7-4.6
	l0,0c1.6-0.3,2-1.3,2.3-2.7c0.4-2,0-2.7-2.2-2.7h-3.1l-2.4,11.3h1l1.2-5.5H27.3L27.3,101.8z M26.5,96.8h2.1c1.2,0,1.7,0.3,1.4,1.9
	c-0.4,1.9-1.2,2.3-2.7,2.3h-1.6L26.5,96.8L26.5,96.8z"/>
<polygon class="st0" points="35.6,107.3 36.6,107.3 38.8,96.8 41.6,96.8 41.8,96 35.3,96 35.1,96.8 37.8,96.8 35.6,107.3 "/>
<polygon class="st0" points="45.8,96 43.4,107.3 44.4,107.3 46.8,96 45.8,96 "/>
<polygon class="st0" points="49.3,107.3 50.3,107.3 51.5,101.9 55,101.9 55.2,101.1 51.7,101.1 52.6,96.8 56.3,96.8 56.5,96 
	51.7,96 49.3,107.3 "/>
<polygon class="st0" points="60.6,96 58.2,107.3 59.2,107.3 61.6,96 60.6,96 "/>
<polygon class="st0" points="66.6,96 64.2,107.3 69.4,107.3 69.6,106.5 65.4,106.5 66.3,101.9 70.3,101.9 70.5,101.1 66.5,101.1 
	67.4,96.8 71.6,96.8 71.7,96 66.6,96 "/>
<path class="st1" d="M77,96.8h1.3c2.8,0,3,0.9,2.3,4.2c-1,4.6-1.5,5.4-4.5,5.4h-1.2L77,96.8L77,96.8z M73.7,107.3h2.6
	c3.4,0,4.4-1.9,5.2-5.6c0.8-3.9,0.8-5.7-2.3-5.7h-3L73.7,107.3L73.7,107.3z"/>
<path class="st1" d="M91,107.3h1l1.1-5.3H95c1.9,0,2.9-1,3.4-3.3c0.6-2.6-1-2.7-1.9-2.7h-3.1L91,107.3L91,107.3z M94.2,96.8H96
	c0.9,0,1.7,0.2,1.3,2.1c-0.4,1.8-1.2,2.3-2.2,2.3h-1.9L94.2,96.8L94.2,96.8z"/>
<path class="st0" d="M104,96h-1l-1.7,7.9c-0.6,2.9,0.8,3.7,2.5,3.7c1.8,0,3.5-0.8,4.1-3.7l1.7-7.9h-1l-1.5,7.1
	c-0.3,1.5-0.8,3.6-3.1,3.6c-2.3,0-1.9-2.1-1.5-3.6L104,96L104,96z"/>
<path class="st1" d="M114.2,101l0.9-4.2h2c0.8,0,1.8,0,1.4,1.9c-0.3,1.3-0.9,2.3-2.4,2.3H114.2L114.2,101z M115.1,107.3
	c1.9,0,3.1-1.1,3.5-3.2c0.3-1.4,0.1-2.4-1.3-2.7l0,0c1.5-0.4,1.9-1.3,2.2-2.7c0.4-2-0.3-2.7-2.1-2.7h-3.2l-2.4,11.3H115.1
	L115.1,107.3z M114,101.9h2c1.7,0,1.7,1.4,1.5,2.4c-0.4,1.7-1.3,2.2-2.9,2.2h-1.6L114,101.9L114,101.9z"/>
<polygon class="st0" points="127.1,107.3 127.2,106.5 123.5,106.5 125.7,96 124.7,96 122.3,107.3 127.1,107.3 "/>
<polygon class="st0" points="133.6,96 131.2,107.3 132.2,107.3 134.6,96 133.6,96 "/>
<path class="st1" d="M140.3,107.5c2.7,0,3.4-2.7,3.6-3.5h-1.1c-0.3,1.5-1.1,2.6-2.4,2.6c-2.4,0-2-2.2-1.3-5c0.6-2.9,1-5,3.5-5
	c1.4,0,1.6,1.2,1.2,2.4h1c0.1-0.6,0.8-3.3-2.1-3.3c-3.7,0-4.2,3.7-4.7,5.9C137.6,103.8,136.6,107.5,140.3,107.5L140.3,107.5z"/>
<path class="st1" d="M158.7,96l-6,11.3h1l1.5-3h4.4l0.3,3h1.1L159.9,96H158.7L158.7,96z M155.7,103.5l3.3-6.4h0l0.6,6.4H155.7
	L155.7,103.5z"/>
<path class="st1" d="M168.1,107.5c2.7,0,3.4-2.7,3.6-3.5h-1.1c-0.3,1.5-1.1,2.6-2.4,2.6c-2.4,0-2-2.2-1.3-5c0.6-2.9,1-5,3.5-5
	c1.4,0,1.6,1.2,1.2,2.4h1c0.1-0.6,0.8-3.3-2.1-3.3c-3.7,0-4.2,3.7-4.7,5.9C165.5,103.8,164.4,107.5,168.1,107.5L168.1,107.5z"/>
<path class="st1" d="M178.5,107.5c2.7,0,3.4-2.7,3.6-3.5h-1.1c-0.3,1.5-1.1,2.6-2.4,2.6c-2.4,0-2-2.2-1.3-5c0.6-2.9,1-5,3.5-5
	c1.4,0,1.6,1.2,1.2,2.4h1c0.1-0.6,0.8-3.3-2.1-3.3c-3.7,0-4.2,3.7-4.7,5.9C175.9,103.8,174.8,107.5,178.5,107.5L178.5,107.5z"/>
<path class="st1" d="M189.2,106.7c-2.4,0-2-2.2-1.3-5c0.6-2.9,1-5,3.5-5c2.4,0,2,2.2,1.3,5C192.1,104.5,191.6,106.7,189.2,106.7
	L189.2,106.7z M189,107.5c3.7,0,4.2-3.7,4.7-5.9c0.5-2.2,1.5-5.9-2.2-5.9c-3.7,0-4.2,3.7-4.7,5.9C186.4,103.8,185.3,107.5,189,107.5
	L189,107.5z"/>
<path class="st0" d="M200.5,96h-1l-1.7,7.9c-0.6,2.9,0.8,3.7,2.5,3.7c1.8,0,3.5-0.8,4.1-3.7l1.7-7.9h-1l-1.5,7.1
	c-0.3,1.5-0.8,3.6-3.1,3.6c-2.3,0-1.9-2.1-1.5-3.6L200.5,96L200.5,96z"/>
<polygon class="st0" points="209.5,107.3 211.7,97.3 211.7,97.3 214.2,107.3 215.7,107.3 218.1,96 217.1,96 215,105.9 215,105.9 
	212.5,96 211,96 208.5,107.3 209.5,107.3 "/>
<polygon class="st0" points="222.5,107.3 223.5,107.3 225.7,96.8 228.5,96.8 228.7,96 222.1,96 222,96.8 224.7,96.8 222.5,107.3 "/>
<path class="st1" d="M234.5,96l-6,11.3h1l1.5-3h4.4l0.3,3h1.1L235.7,96H234.5L234.5,96z M231.5,103.5l3.3-6.4h0l0.6,6.4H231.5
	L231.5,103.5z"/>
<polygon class="st0" points="241.8,107.3 243.9,97.3 244,97.3 246.4,107.3 248,107.3 250.4,96 249.4,96 247.3,105.9 247.2,105.9 
	244.7,96 243.2,96 240.8,107.3 241.8,107.3 "/>
<polygon class="st0" points="254.7,107.3 255.8,107.3 258,96.8 260.7,96.8 260.9,96 254.4,96 254.2,96.8 257,96.8 254.7,107.3 "/>
<path class="st1" d="M270.1,98.9c0.3-1.6,0.2-3.1-2.2-3.1c-1.9,0-3.3,0.8-3.7,2.8c-0.2,1.1-0.3,1.8,1.6,3.2c1.4,1,2.3,1.4,2,3
	c-0.3,1.3-1.1,2-2.4,2c-2,0-1.8-1.3-1.6-2.6h-1c-0.6,2.2,0.2,3.4,2.4,3.4c2,0,3.2-1,3.7-3c0.5-2.2-0.9-2.5-2.1-3.5
	c-1.1-0.9-1.9-1-1.6-2.7c0.3-1.3,1.1-1.8,2.4-1.8c1.5,0,1.7,0.8,1.4,2.2H270.1L270.1,98.9z"/>
<path class="st1" d="M284,96l-6,11.3h1l1.5-3h4.4l0.3,3h1.1L285.2,96H284L284,96z M281,103.5l3.3-6.4h0l0.6,6.4H281L281,103.5z"/>
<polygon class="st0" points="291.3,107.3 293.5,97.3 293.5,97.3 296,107.3 297.5,107.3 299.9,96 298.9,96 296.8,105.9 296.8,105.9 
	294.3,96 292.8,96 290.3,107.3 291.3,107.3 "/>
<path class="st1" d="M305.7,96.8h1.3c2.8,0,3,0.9,2.3,4.2c-1,4.6-1.5,5.4-4.5,5.4h-1.2L305.7,96.8L305.7,96.8z M302.5,107.3h2.6
	c3.4,0,4.4-1.9,5.2-5.6c0.8-3.9,0.8-5.7-2.3-5.7h-3L302.5,107.3L302.5,107.3z"/>
<path class="st1" d="M322.9,107.5c2.7,0,3.4-2.7,3.6-3.5h-1.1c-0.3,1.5-1.1,2.6-2.4,2.6c-2.4,0-2-2.2-1.3-5c0.6-2.9,1-5,3.5-5
	c1.4,0,1.6,1.2,1.2,2.4h1c0.1-0.6,0.8-3.3-2.1-3.3c-3.7,0-4.2,3.7-4.7,5.9C320.3,103.8,319.3,107.5,322.9,107.5L322.9,107.5z"/>
<path class="st1" d="M333.6,106.7c-2.4,0-2-2.2-1.3-5c0.6-2.9,1-5,3.5-5c2.4,0,2,2.2,1.3,5C336.5,104.5,336.1,106.7,333.6,106.7
	L333.6,106.7z M333.4,107.5c3.7,0,4.2-3.7,4.7-5.9c0.5-2.2,1.5-5.9-2.2-5.9c-3.7,0-4.2,3.7-4.7,5.9
	C330.8,103.8,329.7,107.5,333.4,107.5L333.4,107.5z"/>
<polygon class="st0" points="342.7,107.3 344.8,97.3 344.8,97.3 347.3,107.3 348.8,107.3 351.2,96 350.2,96 348.1,105.9 
	348.1,105.9 345.6,96 344.1,96 341.7,107.3 342.7,107.3 "/>
<path class="st1" d="M361.4,98.9c0.3-1.6,0.2-3.1-2.2-3.1c-1.9,0-3.3,0.8-3.7,2.8c-0.2,1.1-0.3,1.8,1.6,3.2c1.4,1,2.3,1.4,2,3
	c-0.3,1.3-1.1,2-2.4,2c-2,0-1.8-1.3-1.6-2.6h-1c-0.6,2.2,0.2,3.4,2.4,3.4c2,0,3.2-1,3.7-3c0.5-2.2-0.9-2.5-2.1-3.5
	c-1.1-0.9-1.9-1-1.6-2.7c0.3-1.3,1.1-1.8,2.4-1.8c1.5,0,1.7,0.8,1.4,2.2H361.4L361.4,98.9z"/>
<path class="st0" d="M367.5,96h-1l-1.7,7.9c-0.6,2.9,0.8,3.7,2.5,3.7s3.5-0.8,4.1-3.7l1.7-7.9h-1l-1.5,7.1c-0.3,1.5-0.8,3.6-3.1,3.6
	c-2.3,0-1.9-2.1-1.5-3.6L367.5,96L367.5,96z"/>
<polygon class="st0" points="380.2,107.3 380.4,106.5 376.6,106.5 378.8,96 377.8,96 375.4,107.3 380.2,107.3 "/>
<polygon class="st0" points="384.8,107.3 385.8,107.3 388,96.8 390.8,96.8 391,96 384.4,96 384.3,96.8 387,96.8 384.8,107.3 "/>
<path class="st1" d="M396.8,96l-6,11.3h1l1.5-3h4.4l0.3,3h1.1L398,96H396.8L396.8,96z M393.8,103.5l3.3-6.4h0l0.6,6.4H393.8
	L393.8,103.5z"/>
<polygon class="st0" points="404.1,107.3 406.2,97.3 406.3,97.3 408.7,107.3 410.3,107.3 412.7,96 411.7,96 409.6,105.9 
	409.5,105.9 407,96 405.5,96 403.1,107.3 404.1,107.3 "/>
<polygon class="st0" points="417,107.3 418,107.3 420.3,96.8 423,96.8 423.2,96 416.7,96 416.5,96.8 419.3,96.8 417,107.3 "/>
<path class="st1" d="M432.3,98.9c0.3-1.6,0.2-3.1-2.2-3.1c-1.9,0-3.3,0.8-3.7,2.8c-0.2,1.1-0.3,1.8,1.6,3.2c1.4,1,2.3,1.4,2,3
	c-0.3,1.3-1.1,2-2.4,2c-2,0-1.8-1.3-1.6-2.6h-1c-0.6,2.2,0.2,3.4,2.4,3.4c2,0,3.2-1,3.7-3c0.5-2.2-0.9-2.5-2.1-3.5
	c-1.1-0.9-1.9-1-1.6-2.7c0.3-1.3,1.1-1.8,2.4-1.8c1.5,0,1.7,0.8,1.4,2.2H432.3L432.3,98.9z"/>
<line class="st2" x1="0" y1="86.5" x2="433.3" y2="86.5"/>
</svg>
